<svg xmlns="http://www.w3.org/2000/svg" viewBox="0 0 31 303.71"><defs><style>.cls-1,.cls-2,.cls-4{fill:#fff;}.cls-2{fill-rule:evenodd;}.cls-3{fill:#4521ff;}.cls-4{font-size:10.71px;font-family:Druk-WideMedium, Druk Wide;letter-spacing:0.05em;}.cls-5{letter-spacing:0.03em;}.cls-6{letter-spacing:0.06em;}</style></defs><title>desain_grafis</title><g id="Layer_2" data-name="Layer 2"><g id="Layer_1-2" data-name="Layer 1"><path class="cls-1" d="M11.47,244.44h1.85v6.06h1.2v-5.92h1.86v5.92h1.33v-6.17h1.9V253H11.47Z"/><path class="cls-1" d="M19.61,242.18H11.47v-2.55h3.39l-3.39-4.16v-3.23l3.72,4.67L19.61,232v3.32l-3.84,4.29h3.84Z"/><path class="cls-1" d="M19.75,226.83c0,4.26-1.84,4.75-2.91,4.75h-.12v-2.65c.49,0,1.29-.32,1.29-2.42v-.15c0-2.14-.43-2.38-.86-2.38s-.77.25-.82,2.13l0,1.4c-.08,3-1.11,4-2.38,4h-.1c-1.21,0-2.48-.72-2.48-4.42v-.76c0-3.84,1.35-4.72,2.57-4.72H14v2.65c-.31.05-1,.21-1,2.35v.17c0,2,.35,2.11.7,2.11s.66-.22.7-1.88l0-1.37c0-3.06.8-4.29,2.41-4.29H17c1.34,0,2.72.68,2.72,4.76Z"/><path class="cls-1" d="M11.47,219.35v-2.54h3v-5.47h-3V208.8h8.14v2.54H16.4v5.47h3.21v2.54Z"/><path class="cls-1" d="M19.61,203.91v2.55H11.47v-2.55Z"/><path class="cls-1" d="M11.47,201.58v-7c0-2.32.9-3,1.86-3h.16a1.68,1.68,0,0,1,1.58,1.29,2.1,2.1,0,0,1,2-1.75h.16c1.28,0,2.34.74,2.34,3.37v7ZM13.19,199h1.32v-4c0-.71-.32-.88-.65-.88h0c-.34,0-.65.17-.65.88Zm3,0h1.6v-4.2c0-.84-.47-1-.8-1H17c-.35,0-.75.16-.75,1Z"/><path class="cls-1" d="M19.61,186.74v2.54H11.47v-2.54Z"/><path class="cls-1" d="M19.75,180.06c0,4.26-1.84,4.75-2.91,4.75h-.12v-2.65c.49,0,1.29-.32,1.29-2.42v-.15c0-2.14-.43-2.38-.86-2.38s-.77.25-.82,2.13l0,1.4c-.08,3-1.11,4-2.38,4h-.1c-1.21,0-2.48-.72-2.48-4.42v-.76c0-3.84,1.35-4.72,2.57-4.72H14v2.65c-.31.05-1,.22-1,2.35V180c0,2,.35,2.11.7,2.11s.66-.22.7-1.88l0-1.36c0-3.06.8-4.3,2.41-4.3H17c1.34,0,2.72.68,2.72,4.77Z"/><path class="cls-1" d="M19.61,170v2.55H11.47V170Z"/><path class="cls-2" d="M17.77,290.05Zm1.8,11.3Zm-.06,2.36-5.2-.91h0l-2.81-.48V300a3.14,3.14,0,0,1,.55-1.83A3,3,0,0,1,13.56,297l0,0,1.2,1.22-.32.12a5.22,5.22,0,0,0-.67.29,1.38,1.38,0,0,0-.57.5,1.14,1.14,0,0,0-.16.38A1.5,1.5,0,0,0,13,300v.73l5.06.88V301a1.92,1.92,0,0,0-.25-1h0l-.1-.16h0a2.82,2.82,0,0,0-.29-.36c-.58-.67-1.43-1.47-2-2L15,297h0c-1.1-1.08-2.6-2.53-3.24-3.15l-.24-.23v-2.11l3.66,3.35h0l4.4-1.85v1.89L17.16,296l-.53.24c-.06,0-.06,0,0,.06h0l0,0A11.76,11.76,0,0,1,19,299l0,.07a4.05,4.05,0,0,1,.49,1.47,4.41,4.41,0,0,1,0,.52v.3h0v2.35Zm0-14.39v.29c0,.29,0,.88,0,1.18v.29h0l-1.16.48-3.77,1.57c-.43-.43-.93-.93-1.38-1.36l3.47-1.33,1-.38-1-.73-4.13-2.9-1-.72h0v-2.1h0l1.33.94,5.34,3.82,1.33.95h0Z"/><rect class="cls-3" width="31" height="145.71"/><text class="cls-4" transform="translate(19.64 137.38) rotate(-90)">DE<tspan class="cls-5" x="22.38" y="0">S</tspan><tspan x="33.18" y="0">AIN G</tspan><tspan class="cls-6" x="77.64" y="0">R</tspan><tspan x="89.19" y="0">AFIS</tspan></text></g></g></svg>