<svg xmlns="http://www.w3.org/2000/svg" viewBox="0 0 499.37 490.28"><defs><style>.cls-1{fill:#fff;}</style></defs><title>logo_svg</title><g id="Layer_2" data-name="Layer 2"><g id="Layer_1-2" data-name="Layer 1"><path class="cls-1" d="M101.63,367.37h0c.81,1,1.61,1.91,2.43,2.86l1.14,1.32,54.46-31.44c1,1,2,1.92,3.05,2.81l1.13,1,46.91-27.08c1.58.86,3.2,1.67,4.83,2.43l1,.45,114.24-66,.1-1.09c.16-1.77.26-3.58.31-5.39l47-27.11-.3-1.49c-.27-1.27-.57-2.61-.91-4.05l54.46-31.45-.57-1.64c-.42-1.18-.85-2.36-1.29-3.53l50.53-29.17-.74-1.71c-.71-1.68-1.45-3.35-2.2-5l-1-2.11L426,169h0c-.31-.7-.63-1.39-1-2.09l-1.29-2.86-53.25,30.75c-.4-1-.81-1.93-1.23-2.85l-.95-2.14L325.4,214.6h0l0,0c-.37-.9-.77-1.85-1.23-2.85l-.95-2.13L182.2,291l1.37,1.88c.63.88,1.25,1.7,1.86,2.49l-43,24.8,1.38,1.89c.59.82,1.22,1.65,1.86,2.48h0L92.46,355.33l1.36,1.88,1.83,2.51,0,0h0l-50.25,29,1.35,1.88c1.06,1.49,2.14,3,3.24,4.43l1.12,1.49,50.54-29.18Z"/><path class="cls-1" d="M148,408l1.07.67,65.06-37.56c2.21.62,4.47,1.2,6.73,1.71l.8.18,152.85-88.25.25-.79c.62-2,1.22-4.19,1.84-6.66h0l65-37.53,0-1.26c-.06-1.63-.14-3.24-.23-4.82l54.44-31.44-.26-1.45q-.51-2.84-1.09-5.66l-.58-2.86L440.4,223.08c-.08-.65-.16-1.3-.25-2l-.5-3.85-59.22,34.19h0l-.07,0c0-.86.08-1.73.11-2.6l.1-3.76-56,32.32c.35-.83.7-1.66,1-2.51l2.21-5.6-96.28,55.59,6,.89c.88.13,1.79.24,2.7.34l-56,32.36,3.31,1.79c.75.41,1.52.81,2.3,1.21l-59.23,34.2,2.5,1.91,2.17,1.63L81.82,430.11,84,432c1.44,1.28,2.9,2.54,4.36,3.78l1.13.95,54.39-31.4C145.27,406.29,146.68,407.17,148,408Z"/><path class="cls-1" d="M437,287.44c.18-.82.37-1.66.54-2.5l1-4.61-92.61,53.46c.95-1,1.89-2.07,2.81-3.14l8.15-9.42L262,376l12.16-2.3c1.41-.26,2.8-.56,4.19-.87l-92.6,53.43,4.49,1.47,2.45.77-.06,0h0l-62.33,36,3.39,1.77q2.88,1.51,5.8,2.95l1,.49,65.27-37.68c2.56.6,4.9,1.11,7.11,1.54l.77.15L430.36,308.61l.68-.39.25-.75c.83-2.41,1.57-4.69,2.24-6.93h0l65.25-37.67.07-1.11c.15-2.17.27-4.33.35-6.5l.16-3.82Z"/><path class="cls-1" d="M400.61,364.61l-1.21.7c.75-.94,1.5-1.89,2.26-2.87l6.52-8.44L264.75,436.81l10.52-1.4c1.21-.16,2.41-.34,3.61-.52l-1.16.67h0l-89.47,51.66,5.19,1.2c2.72.63,5.4,1.21,7.94,1.71l.77.15,110.3-63.68h0a191.07,191.07,0,0,0,62.76-36.23l109.85-63.43.68-.39.26-.75c.83-2.45,1.67-5.06,2.49-7.73l1.55-5.1-89.44,51.64Z"/><path class="cls-1" d="M319.23,485A250.1,250.1,0,0,0,348,474.68a250.67,250.67,0,0,0,51.27-29.6,249.11,249.11,0,0,0,23.35-19.77l12.56-12L302.52,489.88Z"/><path class="cls-1" d="M180.14,5.27a248.18,248.18,0,0,0-28.8,10.33,255.16,255.16,0,0,0-26.51,13.28h0A254.74,254.74,0,0,0,100.07,45.2,249.22,249.22,0,0,0,76.72,65L64.17,77,196.84.41Z"/><path class="cls-1" d="M97.72,127.84l-6.53,8.44L234.62,53.47,224.1,54.88c-1.21.16-2.41.33-3.61.52l1.16-.67h0L311.13,3.07l-5.2-1.21c-2.78-.64-5.38-1.2-7.94-1.71L297.22,0,186.92,63.68h0a190.72,190.72,0,0,0-62.76,36.23L14.31,163.34l-.69.39-.25.75c-.84,2.44-1.65,5-2.49,7.73l-1.56,5.11L100,125C99.22,125.91,98.47,126.86,97.72,127.84Z"/><path class="cls-1" d="M61.83,205.35l-1,4.61,92.6-53.47c-1,1-1.89,2.08-2.81,3.14l-8.15,9.43,94.88-54.78-12.16,2.3c-1.41.27-2.8.56-4.19.87L313.63,64l-4.49-1.46c-.79-.26-1.61-.51-2.45-.77l.07,0h0l62.32-36L365.7,24q-2.9-1.51-5.8-2.94l-1-.5L293.62,58.24c-2.57-.61-4.91-1.12-7.11-1.54l-.77-.15L68.33,182.07l-.25.74c-.84,2.43-1.57,4.7-2.24,6.93L.58,227.42l-.07,1.12C.36,230.7.25,232.87.16,235L0,238.85l62.37-36C62.19,203.67,62,204.5,61.83,205.35Z"/><path class="cls-1" d="M59.21,269.1l.51,3.91L119,238.78c0,.87-.08,1.73-.11,2.6l-.11,3.76,55.48-32h0l.5-.29c-.35.82-.7,1.66-1,2.51l-2.2,5.59,96.27-55.58-6-.89c-.88-.13-1.79-.25-2.7-.35l56-32.36L311.88,130l-2.3-1.21,59.23-34.19-2.5-1.92L364.14,91l53.41-30.84-2.18-1.93q-2.16-1.92-4.36-3.78l-1.13-1L355.5,84.9h0c-1.36-.88-2.73-1.75-4.07-2.59l-1.08-.68-65,37.56h0c-2.22-.63-4.48-1.21-6.73-1.71l-.8-.18L125.61,205.15l-.71.41-.24.79c-.62,2-1.23,4.19-1.85,6.66h0l-65,37.53,0,1.27c.06,1.68.13,3.27.22,4.82L3.63,288.06l.26,1.45c.34,1.9.7,3.78,1.09,5.67L5.57,298,59,267.2Z"/><path class="cls-1" d="M74.29,323.26l1.34,3,53.25-30.74q.6,1.44,1.23,2.85l.95,2.13L174,275.69h0l0,0c.37.91.78,1.85,1.23,2.86l.95,2.12,141-81.39-1.37-1.89q-.94-1.31-1.86-2.49l0,0h0l42.92-24.78-1.38-1.89c-.59-.81-1.21-1.64-1.86-2.48h0L406.91,135l-1.36-1.89c-.6-.84-1.21-1.68-1.83-2.51l50.27-29-1.34-1.88q-1.61-2.24-3.25-4.42l-1.12-1.49-50.53,29.17h0c-.8-1-1.61-1.91-2.43-2.86l-1.13-1.32-54.46,31.44h0c-1-1-2.06-1.92-3.06-2.81l-1.13-1-46.91,27.08c-1.58-.85-3.2-1.67-4.83-2.42l-1-.46-114.24,66-.1,1.08c-.16,1.78-.26,3.59-.31,5.39h0l-47,27.11.3,1.48c.27,1.28.57,2.62.92,4.06L67.93,307.09l.58,1.65c.41,1.18.84,2.35,1.28,3.52h0L19.27,341.43l.73,1.71c.72,1.68,1.45,3.36,2.21,5l1,2.11,50.23-29C73.69,321.94,74,322.6,74.29,323.26Z"/></g></g></svg>