<svg xmlns="http://www.w3.org/2000/svg" viewBox="0 0 104.28 36.36"><defs><style>.cls-1{fill:#fff;}</style></defs><title>type</title><g id="Layer_2" data-name="Layer 2"><g id="Layer_1-2" data-name="Layer 1"><path class="cls-1" d="M4.23,9.25v4.5H0V.24H10.14c4.87,0,6.3,1.92,6.3,4.39v.18c0,2.42-1.47,4.44-6.3,4.44Zm0-3h5.84c1.32,0,2-.49,2-1.41V4.74c0-.92-.6-1.43-2-1.43H4.23Z"/><path class="cls-1" d="M26.36,0c6.58,0,7.35,4.27,7.35,6.69v.54C33.71,9.61,33,14,26.36,14h-.6c-6.62,0-7.36-4.38-7.36-6.76V6.69c0-2.42.74-6.69,7.36-6.69Zm3.92,6.81c0-1.54-.68-3.54-4.23-3.54s-4.22,2-4.22,3.54V7c0,1.55.68,3.67,4.22,3.67s4.23-2.07,4.23-3.63Z"/><path class="cls-1" d="M43.6,14c-7.09,0-7.9-3.05-7.9-4.83V9h4.41c.06.81.53,2.14,4,2.14h.25c3.56,0,4-.71,4-1.43S47.92,8.39,44.8,8.3l-2.33-.05c-5-.15-6.59-1.85-6.59-4V4.12c0-2,1.2-4.12,7.36-4.12h1.25c6.4,0,7.85,2.23,7.85,4.27v.18h-4.4c-.09-.51-.36-1.62-3.9-1.62h-.29c-3.27,0-3.51.59-3.51,1.17s.36,1.11,3.12,1.16l2.27,0c5.09.09,7.14,1.32,7.14,4v.26c0,2.23-1.12,4.52-7.92,4.52Z"/><path class="cls-1" d="M55.12,13.75V.24h4.23V5.87L66.27.24h5.38L63.87,6.41,72,13.75H66.49L59.35,7.38v6.37Z"/><path class="cls-1" d="M81.7,0c8.5,0,9.5,4.27,9.5,6.69v.54c0,2.38-1,6.76-9.5,6.76h-.78c-8.56,0-9.52-4.38-9.52-6.76V6.69c0-2.42,1-6.69,9.52-6.69Zm5.07,6.81c0-1.54-.89-3.54-5.47-3.54s-5.47,2-5.47,3.54V7c0,1.55.89,3.67,5.47,3.67s5.47-2.07,5.47-3.63Z"/><path class="cls-1" d="M9.82,29.19l-7-13.51h4.8l5,9.93,4.67-9.93h4.4L15.09,29.19Z"/><path class="cls-1" d="M28.2,29.19H24V15.68H28.2Z"/><path class="cls-1" d="M38.4,29.43c-7.09,0-7.91-3.05-7.91-4.83v-.2h4.42c.05.81.52,2.14,4,2.14h.26c3.56,0,4-.71,4-1.43s-.42-1.28-3.55-1.37l-2.32,0c-5.05-.15-6.6-1.85-6.6-4v-.17c0-2,1.2-4.12,7.36-4.12h1.26c6.39,0,7.84,2.24,7.84,4.27v.18H42.74c-.09-.51-.37-1.62-3.91-1.62h-.29c-3.27,0-3.51.59-3.51,1.17s.37,1.11,3.13,1.16l2.27,0c5.09.09,7.14,1.32,7.14,4v.26c0,2.23-1.13,4.52-7.92,4.52Z"/><path class="cls-1" d="M58.74,29.39c-7.25,0-8.43-4.61-8.43-7.15V15.68h4.25V22c0,1.75.78,3.91,4.47,3.91s4.43-2.16,4.43-3.91v-6.3H67.7v6.56c0,2.54-1.38,7.15-8.31,7.15Z"/><path class="cls-1" d="M81.63,26.72H73.44l-1.22,2.47H67.91l6.84-13.51h5.48l7.23,13.51H82.9ZM77.45,18.6,75,23.67h5.12Z"/><path class="cls-1" d="M93.35,15.68V25.83h9.39v3.36H89.12V15.68Z"/><path class="cls-1" d="M84.23,36.28v-.47c0-.61.11-1.53,2-1.93l1-.2c.56-.1.61-.21.61-.34s-.12-.31-1-.31-1.13.38-1.14.58H84.3v0c0-.47.2-1.49,2.33-1.49h.22c1.94,0,2.34.62,2.34,1.27h0c0,.62-.24,1-1.59,1.24l-1.13.19c-1,.17-1.09.4-1.09.51H88v-.53h1.27v1.51Z"/><path class="cls-1" d="M95.65,34.29c0,.72-.34,2.06-2.78,2.06h-.25c-2.43,0-2.78-1.34-2.78-2.06v-.17c0-.73.35-2,2.78-2h.25c2.44,0,2.78,1.31,2.78,2Zm-1.35-.13c0-.46-.29-1.07-1.55-1.07s-1.55.61-1.55,1.07v.07c0,.46.29,1.11,1.55,1.11s1.55-.63,1.55-1.1Z"/><path class="cls-1" d="M96.18,33.72V33a1.28,1.28,0,0,0,1.23-.79h1v4.12H97.14V33.72Z"/><path class="cls-1" d="M104.17,33.25a1,1,0,0,1-.84.86,1,1,0,0,1,1,.92v.07c0,.46-.26,1.26-2.44,1.26h-.25c-2.23,0-2.45-.8-2.45-1.26V35c0-.54.54-.84,1-.92-.36-.07-.86-.33-.86-.86v0c0-.38.16-1.12,2.35-1.12h.25c2.18,0,2.33.74,2.33,1.12ZM103,35c0-.2-.1-.42-1.24-.42s-1.24.22-1.24.42h0c0,.18.11.44,1.24.44S103,35.2,103,35Zm-.11-1.71c0-.16-.07-.39-1.13-.39s-1.13.23-1.13.39h0c0,.16.09.4,1.13.4s1.13-.24,1.13-.4Z"/></g></g></svg>