<svg xmlns="http://www.w3.org/2000/svg" viewBox="0 0 156.28 114.87"><title>29nov</title><g id="Layer_2" data-name="Layer 2"><g id="Layer_1-2" data-name="Layer 1"><path d="M42.91,32v7.28H14.56L29.7,19.84c4.06-5.15,4.51-6.31,4.51-8,0-3.48-2.32-4.45-4.25-4.45a4.07,4.07,0,0,0-4.19,4.9h-8C17.14,5,23.32,0,30.34,0,37,0,42.2,4.64,42.2,11c0,4.51-1.55,7-6.64,13.4L29.51,32Z"/><path d="M74.47,13.66a15.51,15.51,0,0,1-3,8.5L59.08,39.23H49.67l9.34-12a8.73,8.73,0,0,1-1.35-.07,13.79,13.79,0,0,1-12-13.46C45.61,5.93,52.25.13,60,.06S74.47,6,74.47,13.66Zm-8.11-.07A6.13,6.13,0,0,0,60,7.15a6.23,6.23,0,0,0-6.44,6.44A6.39,6.39,0,0,0,60,20.23,6.18,6.18,0,0,0,66.36,13.59Z"/><path d="M0,67.12C0,55.33,4.83,47.28,14.5,47.28s14.43,8,14.43,19.84S24,87,14.5,87,0,78.91,0,67.12Zm20.68,0c0-7.54-1.55-12.56-6.18-12.56s-6.25,5-6.25,12.56S9.79,79.68,14.5,79.68,20.68,74.66,20.68,67.12Z"/><path d="M57.53,79.17v7.28H29.18L44.32,67.06c4.06-5.16,4.51-6.32,4.51-8.06,0-3.48-2.32-4.44-4.25-4.44a4.06,4.06,0,0,0-4.19,4.89h-8C31.76,52.24,37.94,47.21,45,47.21c6.7,0,11.85,4.64,11.85,11,0,4.51-1.55,7-6.64,13.4l-6,7.54Z"/><path d="M61.58,82.26a4.71,4.71,0,0,1,4.64-4.7,4.7,4.7,0,1,1,0,9.4A4.71,4.71,0,0,1,61.58,82.26Z"/><path d="M103.2,42.32V86.45L95,86.51V84.19A10.66,10.66,0,0,1,87.68,87C80.53,87,74.92,81,74.92,73.56s5.61-13.4,12.76-13.4A10.66,10.66,0,0,1,95,62.93V42.32ZM95.41,73.56a6.12,6.12,0,1,0-6.12,6.12A6.12,6.12,0,0,0,95.41,73.56Z"/><path d="M135,74.92H115.25c.32,3.67,2.25,5.92,6,5.92,2.83,0,4.7-1.22,5.41-3.28h7.92c-1.28,5.6-6,9.4-13.2,9.4-8.64,0-14.43-5.34-14.43-13.4S112.8,60.1,121.11,60.1,135,65.45,135,73.5Zm-19.2-5h10.7a5,5,0,0,0-5.22-3.55A5.33,5.33,0,0,0,115.76,70Z"/><path d="M136.05,80.78l6.06-3a4.71,4.71,0,0,0,4.32,2.71c1.35,0,2.25-.58,2.25-1.61s-.77-1.55-3.09-2.45c-3-1.1-8.12-2.84-8.12-8,0-4.38,3.74-8.25,9.6-8.25a12.46,12.46,0,0,1,8.7,3.42l-4.13,4.64a5.35,5.35,0,0,0-4-1.87c-1.42,0-2.06.64-2.06,1.48s.9,1.35,2.77,2.13c3.67,1.41,7.92,3.47,7.92,8.63,0,4.83-3.54,8.37-9.34,8.37C142.37,87,137.6,84.77,136.05,80.78Z"/><path d="M120.27,111.72v2.94H108.82l6.12-7.83c1.63-2.08,1.82-2.55,1.82-3.25a1.61,1.61,0,0,0-1.72-1.79,1.64,1.64,0,0,0-1.69,2h-3.23c-.26-2.91,2.24-4.94,5.08-4.94a4.51,4.51,0,0,1,4.78,4.45c0,1.82-.62,2.83-2.68,5.41l-2.44,3Z"/><path d="M121.54,106.86c0-4.76,2-8,5.86-8s5.83,3.25,5.83,8-2,8-5.83,8S121.54,111.62,121.54,106.86Zm8.36,0c0-3-.63-5.07-2.5-5.07s-2.53,2-2.53,5.07.63,5.07,2.53,5.07S129.9,109.9,129.9,106.86Z"/><path d="M136.71,102h-2.36V99.05H140v15.61h-3.33Z"/><path d="M153.42,109.93c0,2.81-2.35,4.94-5.54,4.94s-5.55-2.13-5.55-4.94a4.46,4.46,0,0,1,2.27-4,3.86,3.86,0,0,1-1.33-3c0-2.37,1.93-4.16,4.61-4.16a4.26,4.26,0,0,1,4.57,4.16,3.94,3.94,0,0,1-1.3,3A4.46,4.46,0,0,1,153.42,109.93Zm-3.36-.26a2.19,2.19,0,1,0-4.37,0,2.19,2.19,0,1,0,4.37,0Zm-2.18-4.55a1.81,1.81,0,1,0-1.8-1.82A1.77,1.77,0,0,0,147.88,105.12Z"/><polygon points="148.81 28.06 147.52 29.35 152.62 34.46 101.3 34.46 101.3 36.29 152.62 36.29 147.52 41.4 148.81 42.69 156.12 35.38 148.81 28.06"/><path d="M101.48,6.35v6.72H98.11V6.91a1.62,1.62,0,0,0-1.67-1.67,1.7,1.7,0,0,0-1.77,1.67v6.16h-3.4V2.45h3.4v1.3a3.83,3.83,0,0,1,3-1.51A3.92,3.92,0,0,1,101.48,6.35Z"/><path d="M102.81,7.76c0-3.18,2.36-5.52,5.92-5.52s5.89,2.34,5.89,5.52-2.34,5.52-5.89,5.52S102.81,10.94,102.81,7.76Zm8.44,0a2.52,2.52,0,1,0-2.52,2.52A2.49,2.49,0,0,0,111.25,7.76Z"/><path d="M126.21,2.45l-4.29,10.62h-3.19L114.49,2.45h3.6l2.26,7,2.23-7Z"/></g></g></svg>