<svg xmlns="http://www.w3.org/2000/svg" viewBox="0 0 158.47 115.76"><title>30nov</title><g id="Layer_2" data-name="Layer 2"><g id="Layer_1-2" data-name="Layer 1"><path d="M128.38,113v2.6H118.27l5.4-6.92c1.44-1.83,1.6-2.25,1.6-2.87a1.41,1.41,0,0,0-1.51-1.58,1.44,1.44,0,0,0-1.49,1.74h-2.85c-.23-2.57,2-4.36,4.48-4.36a4,4,0,0,1,4.22,3.93c0,1.6-.55,2.5-2.36,4.77L123.6,113Z"/><path d="M129.5,108.69c0-4.21,1.72-7.08,5.17-7.08s5.14,2.87,5.14,7.08-1.75,7.07-5.14,7.07S129.5,112.89,129.5,108.69Zm7.37,0c0-2.69-.55-4.48-2.2-4.48s-2.23,1.79-2.23,4.48.55,4.47,2.23,4.47S136.87,111.37,136.87,108.69Z"/><path d="M142.88,104.39h-2.09V101.8h5v13.78h-2.94Z"/><path d="M157.63,111.4c0,2.48-2.07,4.36-4.89,4.36s-4.9-1.88-4.9-4.36a4,4,0,0,1,2-3.49,3.46,3.46,0,0,1-1.17-2.62,4.07,4.07,0,0,1,8.11,0,3.52,3.52,0,0,1-1.15,2.62A4,4,0,0,1,157.63,111.4Zm-3-.23a1.93,1.93,0,1,0-3.86,0,1.93,1.93,0,1,0,3.86,0Zm-1.93-4a1.6,1.6,0,1,0-1.59-1.61A1.57,1.57,0,0,0,152.74,107.15Z"/><path d="M42.84,27.12c0,7-5.67,12.56-13.08,12.56-7,0-12.75-5-12.75-11.21l8.18-.12c0,2.06,2.13,3.6,4.57,3.6a4.81,4.81,0,0,0,5-5.09A4.62,4.62,0,0,0,29.89,22H18.36L29.18,7.79H17V.52H43.17L30.8,16C37.56,16,42.84,19.84,42.84,27.12Z"/><path d="M47.16,19.84C47.16,8.05,52,0,61.65,0S76.08,8.05,76.08,19.84,71.19,39.68,61.65,39.68,47.16,31.63,47.16,19.84Zm20.68,0c0-7.54-1.55-12.56-6.19-12.56s-6.25,5-6.25,12.56S57,32.4,61.65,32.4,67.84,27.38,67.84,19.84Z"/><path d="M0,67.06C0,55.27,4.83,47.21,14.5,47.21s14.43,8.06,14.43,19.85S24,86.9,14.5,86.9,0,78.85,0,67.06Zm20.68,0c0-7.54-1.55-12.57-6.18-12.57s-6.25,5-6.25,12.57S9.79,79.62,14.5,79.62,20.68,74.59,20.68,67.06Z"/><path d="M58.56,74.34c0,7-5.67,12.56-13.08,12.56-7,0-12.75-5-12.75-11.21l8.18-.13c0,2.06,2.12,3.61,4.57,3.61a4.8,4.8,0,0,0,5-5.09,4.62,4.62,0,0,0-4.83-4.9H34.08L44.9,55H32.73V47.73H58.88L46.51,63.25C53.28,63.19,58.56,67.06,58.56,74.34Z"/><path d="M63.77,82.2a4.72,4.72,0,0,1,4.64-4.71,4.71,4.71,0,1,1,0,9.41A4.72,4.72,0,0,1,63.77,82.2Z"/><path d="M105.39,42.25V86.38l-8.18.07V84.13a10.66,10.66,0,0,1-7.34,2.77c-7.16,0-12.76-5.93-12.76-13.4s5.6-13.4,12.76-13.4a10.66,10.66,0,0,1,7.34,2.77V42.25ZM97.6,73.5a6.12,6.12,0,1,0-6.12,6.12A6.11,6.11,0,0,0,97.6,73.5Z"/><path d="M137.15,74.85H117.44c.32,3.67,2.25,5.93,6,5.93,2.83,0,4.7-1.23,5.41-3.29h7.92c-1.28,5.61-6,9.41-13.2,9.41-8.64,0-14.43-5.35-14.43-13.4S115,60,123.3,60s13.85,5.35,13.85,13.4Zm-19.2-5h10.7a5,5,0,0,0-5.22-3.54A5.34,5.34,0,0,0,118,69.89Z"/><path d="M138.24,80.71l6.06-3a4.7,4.7,0,0,0,4.32,2.7c1.35,0,2.25-.58,2.25-1.61s-.77-1.55-3.09-2.45c-3-1.09-8.12-2.83-8.12-8,0-4.38,3.74-8.24,9.6-8.24a12.49,12.49,0,0,1,8.7,3.41l-4.13,4.64a5.38,5.38,0,0,0-4-1.87c-1.42,0-2.06.65-2.06,1.48s.9,1.36,2.77,2.13c3.67,1.42,7.92,3.48,7.92,8.63,0,4.83-3.54,8.38-9.34,8.38C144.56,86.9,139.79,84.71,138.24,80.71Z"/><path d="M114.85,4.11,115,17.36l-3,0-6.57-8.73.08,8.79-2.92,0-.12-13.26,3,0,6.6,8.72L112,4.13Z"/><path d="M116.34,10.72a6.81,6.81,0,1,1,6.87,6.75A6.81,6.81,0,0,1,116.34,10.72Zm10.76-.09a3.95,3.95,0,1,0-7.89.07,3.95,3.95,0,1,0,7.89-.07Z"/><path d="M142.55,3.86l-4.65,13.3-3.27,0L129.74,4l3.24,0,3.25,9.45,3.07-9.5Z"/><polygon points="151 22.74 149.71 24.03 154.81 29.14 103.49 29.14 103.49 30.97 154.81 30.97 149.71 36.08 151 37.37 158.31 30.05 151 22.74"/></g></g></svg>