<svg xmlns="http://www.w3.org/2000/svg" viewBox="0 0 392.35 68.3"><defs><style>.cls-1{fill:lime;}.cls-2{fill:#fff;}</style></defs><title>bagikan_01</title><g id="Layer_2" data-name="Layer 2"><g id="Layer_1-2" data-name="Layer 1"><path class="cls-1" d="M358.2,0a34.15,34.15,0,1,0,34.15,34.15A34.19,34.19,0,0,0,358.2,0Zm0,64a29.88,29.88,0,1,1,29.88-29.88A29.92,29.92,0,0,1,358.2,64Z"/><circle class="cls-1" cx="345.94" cy="22.8" r="4.63"/><circle class="cls-1" cx="370.45" cy="22.8" r="4.63"/><path class="cls-1" d="M380.12,39a2.13,2.13,0,0,0-2.66,1.43c0,.13-4,12.75-19.26,12.75S339.09,41,338.93,40.45a2.14,2.14,0,0,0-4.09,1.23c.05.16,4.94,15.8,23.36,15.8s23.31-15.64,23.35-15.8A2.13,2.13,0,0,0,380.12,39Z"/><path class="cls-2" d="M11.15,11V25.05c1.2-.95,5.41-4.4,13.46-4.4h.9C37.71,20.65,42,26.8,42,34.15v1c0,7.26-4.86,13.76-16.81,13.76h-.85c-7.7,0-12.26-3.4-13.31-4.45a21.39,21.39,0,0,0-.7,3.8H0V11Zm0,23.76c0,3.36,3.16,7,9.71,7h.3c7.25,0,9.4-3.76,9.4-7v-.2c0-3.45-2.15-6.95-9.4-6.95h-.3c-6.65,0-9.71,3.5-9.71,6.95Z"/><path class="cls-2" d="M59.73,48.71h-.65c-9.06,0-12.51-4.2-12.51-8.8v-.35c0-5,3.25-7.31,11.31-8.06l12.3-1.15c1.25-.15,1.7-.55,1.7-1.4s-.45-2.2-7-2.2h-.25c-6.65,0-6.9,2.1-7,3H47.22v-.1c0-3.55,1.05-9.1,16.06-9.1H66c15.61,0,16.61,4.8,16.61,8.7V39.56c0,.8.25,1.35,1.4,1.35h1.45v7.3H76.43a4,4,0,0,1-4.25-3.7C71,46,67.63,48.71,59.73,48.71ZM71.88,35.4,61.23,37.05c-2.85.45-4,1-4,2.51v0c0,1.45,1.1,3,4.9,3,6,0,9.8-3.2,9.8-6.41Z"/><path class="cls-2" d="M109.35,58C92.44,58,91,50.51,91,48.36v-.15H102.3c.15.65,1,2.5,8.6,2.5h.15c8.3,0,9.6-4.3,9.6-7.75-1.35,1.2-4.65,4-13.1,4H107c-12.6,0-17.56-5.9-17.56-12.86v-1c0-6.5,4.2-12.5,16.16-12.5h1c9,0,12.55,2.9,14,4.25V21.3h11.21v22c0,4.85-2.4,14.65-18.91,14.65Zm.6-30.31c-7.2,0-9.2,3-9.2,6v.25c0,3.05,2.35,6.26,9.2,6.26h.3c7,0,10.15-3.11,10.15-6.21v-.2c0-3.2-3.15-6.1-10.15-6.1Z"/><path class="cls-2" d="M150.17,18.7H139V11h11.15Zm0,29.51H139V21.3h11.15Z"/><path class="cls-2" d="M157.38,48.21V11h11.15V32.05l10.9-10.75h12.36L179.08,33.45l14.26,14.76H180.23l-11.7-12.36V48.21Z"/><path class="cls-2" d="M207.3,48.71h-.65c-9.05,0-12.51-4.2-12.51-8.8v-.35c0-5,3.26-7.31,11.31-8.06l12.3-1.15c1.25-.15,1.7-.55,1.7-1.4s-.45-2.2-7-2.2h-.25c-6.65,0-6.9,2.1-7,3H194.79v-.1c0-3.55,1.06-9.1,16.06-9.1h2.75c15.61,0,16.61,4.8,16.61,8.7V39.56c0,.8.25,1.35,1.4,1.35h1.45v7.3H224a4,4,0,0,1-4.26-3.7C218.6,46,215.2,48.71,207.3,48.71ZM219.45,35.4,208.8,37.05c-2.85.45-4.05,1-4.05,2.51v0c0,1.45,1.1,3,4.9,3,5.95,0,9.8-3.2,9.8-6.41Z"/><path class="cls-2" d="M238.22,21.3h11.05v4.6c1.35-1.35,5.35-5.2,13.35-5.2H263c9.41,0,13.11,5.3,13.11,10.5v17H264.83V34.9c0-4.15-2.26-6.7-7.21-6.7s-8.25,2.9-8.25,7.3V48.21H238.22Z"/></g></g></svg>