<svg xmlns="http://www.w3.org/2000/svg" viewBox="0 0 483.02 481.42"><defs><style>.cls-1{fill:#fff;}</style></defs><title>logo_final</title><g id="Layer_2" data-name="Layer 2"><g id="Layer_1-2" data-name="Layer 1"><path class="cls-1" d="M384.09,195.31,340.9,220.24c.27,1.47.53,2.94.8,4.4l-37.86,21.87c-.14,1.86-.4,3.6-.67,5.33L220.38,299.7c-1.73-.66-3.47-1.33-5.07-2l-37.73,21.73a34.76,34.76,0,0,1-3.46-2.93l-43.2,24.93-2.8-3.2L47.46,384.76a33.88,33.88,0,0,1-2.53-3.47c-.8-1.2-1.6-2.26-2.53-3.46l-2.4-3.6,80.12-46.13c-.93-1.2-1.73-2.27-2.53-3.47l41.86-24.26c-.8-1.07-1.6-2.27-2.4-3.47l33.73-19.46-2.4-3.6,108.39-62.53a34.63,34.63,0,0,1,1.87,3.87l33.73-19.47c.66,1.2,1.2,2.54,1.86,3.87l41.87-24.26c.66,1.33,1.2,2.66,1.73,3.86l80-46.13c.67,1.2,1.33,2.54,2,3.87s1.07,2.53,1.73,3.87,1.2,2.53,1.74,3.86l-80.66,46.53C383.16,192.51,383.56,194,384.09,195.31Z"/><path class="cls-1" d="M391,235.58c0,1.6.13,3.2.13,4.8l-52.79,30.39a59.5,59.5,0,0,1-2.14,6.27L225.45,340.9c-2.14-.27-4.27-.8-6.27-1.2l-52.8,30.4c-1.33-.8-2.8-1.6-4.13-2.54l-85.86,49.6c-1.06-.94-2.13-2-3.2-3.07s-2.13-2-3.2-3.07-2-2.13-2.93-3.19l83.59-48.27-3.6-2.8L193.31,330a45,45,0,0,1-4.26-2.4l43.06-24.93a53.64,53.64,0,0,1-6.27-1.2l76-43.87a45.88,45.88,0,0,1-2,6l43.06-24.79v4.93l46.26-26.8c.27,1.47.53,3.07.67,4.53l83.72-48.26c.4,1.34.8,2.8,1.2,4.13s.8,2.94,1.2,4.27.67,2.93.93,4.4Z"/><path class="cls-1" d="M483,231.58,383,289.3c-.8,2.14-1.47,4.27-2.27,6.27L219.31,388.76c-2.13-.4-4.26-.8-6.53-1.2l-100,57.73c-1.33-.8-2.67-1.74-4-2.54s-2.67-1.73-4-2.66-2.53-1.87-3.73-2.67L195.18,383c-1.73-.67-3.6-1.2-5.33-1.87l70.66-40.79a103,103,0,0,1-11.07,1.46l75.73-43.73a77.18,77.18,0,0,1-6.93,8.94l70.66-40.8c-.27,1.87-.67,3.73-1.07,5.47l94.26-54.27c.13,1.47.26,3.07.26,4.67s.4,3.07.4,4.67S482.88,230,483,231.58Z"/><path class="cls-1" d="M481.82,266.64c-.27,1.87-.4,3.6-.67,5.33s-.4,3.6-.67,5.33-.66,3.6-.93,5.47L158.79,468c-1.74-.66-3.34-1.33-5.07-2s-3.34-1.33-5.07-2-3.2-1.46-4.8-2.13l129.86-74.93c-4,.8-8.14,1.6-12.27,2.14L360,332.1q-3.79,5-8,9.6Z"/><path class="cls-1" d="M468.75,323.43c-.8,2.14-1.73,4.27-2.53,6.27s-1.73,4.4-2.67,6.53-1.86,4.4-2.93,6.54L220.38,481.42c-2.4-.14-4.8-.4-7.2-.67s-4.67-.53-6.93-.93-4.4-.67-6.67-1.07Z"/><path class="cls-1" d="M425.29,397.56c-2.93,3.6-6.13,6.93-9.33,10.27-3.87,4.13-7.87,8.13-12.13,12a251.59,251.59,0,0,1-21.73,17.47L341,461a238.58,238.58,0,0,1-25.73,9.86c-5.33,1.74-10.93,3.34-16.53,4.67-4.4,1.07-8.93,2-13.46,2.8Z"/><path class="cls-1" d="M197.71,3.07,57.73,84c2.93-3.6,6.13-7.06,9.33-10.4,3.87-4.13,7.87-8.13,12.13-11.86a227.85,227.85,0,0,1,21.73-17.47L142,20.53a272.72,272.72,0,0,1,25.73-10c5.46-1.73,10.93-3.2,16.53-4.53C188.65,4.93,193.18,4,197.71,3.07Z"/><path class="cls-1" d="M283.44,2.8,14.4,158.12c.67-2.14,1.6-4.27,2.4-6.4s1.73-4.27,2.67-6.4,1.86-4.4,2.93-6.67L262.64,0l7.2.8,6.93.8Z"/><path class="cls-1" d="M209.31,94.66a124.27,124.27,0,0,1,12.27-2.14l-98.52,56.8c2.53-3.2,5.2-6.4,8-9.47L1.2,214.78c.27-1.74.53-3.47.67-5.2s.4-3.6.66-5.33.67-3.74,1.07-5.47L324.23,13.6c1.74.67,3.34,1.33,5.07,2s3.33,1.33,5.07,2,3.2,1.33,4.8,2.13Z"/><path class="cls-1" d="M293.17,100.39l-70.66,40.66a102.66,102.66,0,0,1,11.07-1.33l-75.73,43.59a86.86,86.86,0,0,1,6.93-8.79L94.12,215.31c.27-1.87.67-3.73,1.07-5.6L.93,264.11c-.13-1.6-.26-3.07-.26-4.67s-.27-3.2-.4-4.67S.13,251.57,0,250l100-57.72c.8-2.14,1.47-4.27,2.4-6.27L263.71,92.79c2.13.4,4.26.67,6.53,1.2l100-57.73c1.33.8,2.67,1.6,4,2.54s2.66,1.73,4,2.66,2.53,1.74,3.73,2.67L287.84,98.52C289.57,99.06,291.44,99.72,293.17,100.39Z"/><path class="cls-1" d="M336,124.79,289.7,151.45A44.85,44.85,0,0,1,294,154l-43.06,24.8c2.13.4,4.13.8,6.26,1.33l-76,43.87c.54-2.14,1.34-4.14,2-6.14l-43.06,24.94v-4.94l-46.26,26.8c-.27-1.6-.4-3.07-.67-4.67L9.47,308.37c-.4-1.47-.8-2.8-1.2-4.27a40.78,40.78,0,0,1-1.07-4.26c-.4-1.34-.67-2.8-1.07-4.27L92,246V241l52.66-30.4c.67-2,1.34-4.13,2.14-6.13l110.78-63.86a48.27,48.27,0,0,1,6.27,1.2l52.79-30.39c1.34.79,2.8,1.59,4.14,2.39l85.85-49.46c1.07.94,2.14,2,3.2,3.07s2.14,2,3.21,3.07,2,2.13,3.06,3.06L332.37,122Z"/><path class="cls-1" d="M365.43,156.92l-41.86,24.13,2.4,3.6-33.73,19.46c.8,1.07,1.6,2.27,2.4,3.47L186.25,270.24c-.67-1.33-1.33-2.53-1.87-3.87l-33.73,19.47c-.67-1.2-1.2-2.54-1.86-3.87L106.92,306.1c-.53-1.2-1.2-2.53-1.73-3.86l-80,46.26c-.67-1.34-1.34-2.54-2-3.87s-1.07-2.53-1.73-3.87-1.21-2.53-1.74-3.86l80.66-46.53c-.53-1.47-.93-2.8-1.46-4.13l43.19-24.93c-.27-1.47-.53-3.07-.8-4.54l37.86-21.86c.14-1.73.4-3.47.67-5.33l82.79-47.73c1.73.53,3.47,1.33,5.07,2L305.44,162c1.2,1.07,2.4,2,3.46,2.94L352.1,140c.93,1.06,1.86,2.26,2.8,3.33l80.66-46.53a33.88,33.88,0,0,1,2.53,3.47c.8,1.2,1.73,2.26,2.53,3.46s1.6,2.4,2.4,3.47L362.9,153.45C363.83,154.65,364.63,155.72,365.43,156.92Z"/></g></g></svg>