<svg xmlns="http://www.w3.org/2000/svg" viewBox="0 0 36.23 36.11"><defs><style>.cls-1{fill:#fff;}</style></defs><title>logo_small</title><g id="Layer_2" data-name="Layer 2"><g id="Layer_1-2" data-name="Layer 1"><path class="cls-1" d="M28.81,14.65l-3.24,1.87.06.33-2.84,1.64c0,.14,0,.27-.05.4l-6.21,3.59-.38-.15L13.32,24a2.75,2.75,0,0,1-.26-.22L9.82,25.61l-.21-.24-6,3.49a2.48,2.48,0,0,1-.19-.26l-.19-.26L3,28.07l6-3.46-.19-.26L12,22.53l-.18-.26,2.53-1.46-.18-.27,8.13-4.69a2.59,2.59,0,0,1,.14.29l2.53-1.46c.05.09.09.19.14.29l3.14-1.82c.05.1.09.2.13.29l6-3.46.15.29c0,.09.08.19.13.29s.09.19.13.29L28.7,14.34C28.74,14.44,28.77,14.55,28.81,14.65Z"/><path class="cls-1" d="M29.33,17.67c0,.12,0,.24,0,.36l-4,2.28a4.34,4.34,0,0,1-.16.47l-8.31,4.79c-.16,0-.32-.06-.47-.09l-4,2.28-.31-.19L5.73,31.29l-.24-.23-.24-.23L5,30.59,11.3,27,11,26.76l3.47-2a3.3,3.3,0,0,1-.32-.18l3.23-1.87a3.89,3.89,0,0,1-.47-.09l5.7-3.29a3.39,3.39,0,0,1-.15.45l3.23-1.86v.37l3.47-2c0,.11,0,.23,0,.34L35.52,13l.09.31.09.32c0,.11,0,.22.07.33Z"/><path class="cls-1" d="M36.23,17.37l-7.5,4.33c-.06.16-.11.32-.17.47l-12.11,7L16,29.07,8.46,33.4l-.3-.19-.3-.2-.28-.2,7.06-4.08-.4-.14,5.3-3.06a7.53,7.53,0,0,1-.83.11l5.68-3.28a5.7,5.7,0,0,1-.52.67L29.17,20c0,.14-.05.28-.08.41l7.07-4.07c0,.11,0,.23,0,.35s0,.23,0,.35S36.22,17.25,36.23,17.37Z"/><path class="cls-1" d="M36.14,20c0,.14,0,.27,0,.4s0,.27-.05.4,0,.27-.07.41L11.91,35.1,11.53,35l-.38-.15-.36-.16L20.53,29c-.3.06-.61.12-.92.16L27,24.91q-.29.38-.6.72Z"/><path class="cls-1" d="M35.16,24.26c-.06.16-.13.32-.19.47s-.13.33-.2.49-.14.33-.22.49l-18,10.4-.54,0L15.47,36l-.5-.08Z"/><path class="cls-1" d="M31.9,29.82c-.22.27-.46.52-.7.77s-.59.61-.91.9a18.68,18.68,0,0,1-1.63,1.31l-3.08,1.78a17.89,17.89,0,0,1-1.93.74c-.4.13-.82.25-1.24.35s-.67.15-1,.21Z"/><path class="cls-1" d="M14.83.23,4.33,6.3c.22-.27.46-.53.7-.78s.59-.61.91-.89A17,17,0,0,1,7.57,3.32l3.08-1.78A20.31,20.31,0,0,1,12.58.79C13,.66,13.4.55,13.82.45Z"/><path class="cls-1" d="M21.26.21,1.08,11.86c0-.16.12-.32.18-.48s.13-.32.2-.48.14-.33.22-.5L19.7,0l.54.06.52.06Z"/><path class="cls-1" d="M15.7,7.1a9.3,9.3,0,0,1,.92-.16L9.23,11.2c.19-.24.39-.48.6-.71L.09,16.11c0-.13,0-.26.05-.39s0-.27,0-.4,0-.28.08-.41L24.32,1l.38.15.38.15.36.16Z"/><path class="cls-1" d="M22,7.53l-5.3,3.05a7.53,7.53,0,0,1,.83-.1l-5.68,3.27a6.55,6.55,0,0,1,.52-.66l-5.3,3.06c0-.14.05-.28.08-.42L.07,19.81c0-.12,0-.23,0-.35l0-.35c0-.12,0-.24,0-.36l7.5-4.33c.06-.16.11-.32.18-.47l12.1-7,.49.09,7.5-4.33.3.19.3.2.28.2L21.59,7.39Z"/><path class="cls-1" d="M25.2,9.36l-3.47,2a3.37,3.37,0,0,1,.32.19l-3.23,1.86.47.1-5.7,3.29c0-.16.1-.31.15-.46l-3.23,1.87v-.37L7,19.85c0-.12,0-.23,0-.35L.71,23.13l-.09-.32a3,3,0,0,1-.08-.32c0-.1-.05-.21-.08-.32L6.9,18.45v-.37l3.95-2.28c.05-.15.1-.31.16-.46l8.31-4.79a3.55,3.55,0,0,1,.47.09l4-2.28.31.18L30.5,4.83l.24.23.24.23c.08.07.15.16.23.23L24.93,9.15Z"/><path class="cls-1" d="M27.41,11.77l-3.14,1.81.18.27-2.53,1.46.18.26L14,20.27c-.05-.1-.1-.19-.14-.29L11.3,21.44c-.05-.09-.09-.19-.14-.29L8,23c0-.09-.09-.19-.13-.29l-6,3.47-.15-.29c0-.09-.08-.19-.13-.29s-.09-.19-.13-.29l6.05-3.49c0-.11-.07-.21-.11-.31l3.24-1.87-.06-.34,2.84-1.64c0-.13,0-.26.05-.4l6.21-3.58c.13,0,.26.1.38.15l2.83-1.64.26.22,3.24-1.87.21.25,6.05-3.49a2.48,2.48,0,0,1,.19.26l.19.26.18.26-6,3.47Z"/></g></g></svg>