<svg xmlns="http://www.w3.org/2000/svg" viewBox="0 0 139.44 96.86"><defs><style>.cls-1{fill:#fff;}.cls-2{fill:lime;}</style></defs><title>aboutus_1</title><g id="Layer_2" data-name="Layer 2"><g id="Layer_1-2" data-name="Layer 1"><path class="cls-1" d="M15.85,12.77H6.38L5,15.62H0L7.89,0h6.35l8.35,15.62H17.32ZM11,3.38,8.13,9.24h5.92Z"/><path class="cls-1" d="M29,0V5.9a8.52,8.52,0,0,1,5.65-1.85H35c5.13,0,6.91,2.58,6.91,5.67v.4c0,3-2,5.77-7,5.77H34.5A8.26,8.26,0,0,1,28.92,14a8.46,8.46,0,0,0-.3,1.59H24.3V0Zm0,10c0,1.41,1.32,2.94,4.07,2.94h.13c3,0,4-1.57,4-2.94V9.89c0-1.45-.91-2.92-4-2.92h-.13C30.26,7,29,8.44,29,9.89Z"/><path class="cls-1" d="M52.1,15.94C45.55,15.94,44,12.7,44,10.1V9.72C44,7.12,45.53,4,52.08,4h1.49c6.89,0,8.08,3.15,8.08,5.71v.38c0,2.6-1.11,5.84-8.08,5.84Zm4.81-6v-.1C56.91,8.46,56,7,52.85,7h0c-3.19,0-4.07,1.43-4.07,2.86V10c0,1.33.88,2.92,4.07,2.92S56.91,11.3,56.91,10Z"/><path class="cls-1" d="M79.78,15.62H75.13V13.67a7.42,7.42,0,0,1-5.48,2.2h-.16c-3.89,0-5.38-2.39-5.38-4.51v-7h4.73V9.91a2.57,2.57,0,0,0,2.89,2.81c2,0,3.36-1.21,3.36-3.06V4.33h4.69Z"/><path class="cls-1" d="M87.11,15.62c-2,0-2.8-1.26-2.8-3.21v-5h-2.2V4.33h2.2V1h4.62v3.3h2.23v3.1H88.93v4.1c0,.61.13,1,.95,1h1.28v3.11Z"/><path class="cls-1" d="M111.09,15.85c-8.38,0-9.75-5.33-9.75-8.27V0h4.92V7.29c0,2,.9,4.51,5.16,4.51s5.12-2.5,5.12-4.51V0h4.9V7.58c0,2.94-1.6,8.27-9.6,8.27Z"/><path class="cls-1" d="M131.12,15.94c-6.59,0-7.26-2.56-7.26-4V11.8h4.83c0,.42.16,1.53,2.89,1.53h0c2.6,0,2.91-.52,2.91-1.07v0c0-.59-.27-.92-2.47-1l-2,0c-4.91-.1-6.09-1.87-6.09-3.53V7.54c0-1.75.92-3.53,7.14-3.53h.84C137.65,4,139,5.79,139,7.56v.15h-4.77c-.06-.42-.27-1.16-2.79-1.16h0c-2.25,0-2.69.27-2.69.84v0c0,.51.42.84,2.37.91l2,0c5.2.1,6.3,1.28,6.3,3.55v.12c0,2.08-1.22,3.89-7.46,3.89Z"/><path class="cls-1" d="M1,24.71a8.31,8.31,0,0,1,1.5-.12,2.55,2.55,0,0,1,1.71.5,1.65,1.65,0,0,1,.53,1.27,1.83,1.83,0,0,1-.47,1.3,2.54,2.54,0,0,1-1.86.67,2.45,2.45,0,0,1-.63-.06V30.7H1Zm.78,2.92a2.39,2.39,0,0,0,.65.07C3.4,27.7,4,27.24,4,26.4s-.56-1.19-1.43-1.19a3.84,3.84,0,0,0-.74.06Z"/><path class="cls-1" d="M13.51,27.61c0,2.08-1.27,3.19-2.82,3.19A2.78,2.78,0,0,1,8,27.72a2.87,2.87,0,0,1,2.81-3.18A2.76,2.76,0,0,1,13.51,27.61Zm-4.71.1c0,1.29.71,2.45,1.94,2.45s1.94-1.14,1.94-2.52c0-1.2-.63-2.46-1.93-2.46S8.8,26.37,8.8,27.71Z"/><path class="cls-1" d="M16.94,29.75a2.86,2.86,0,0,0,1.41.39c.8,0,1.26-.42,1.26-1s-.32-.89-1.14-1.21c-1-.35-1.6-.86-1.6-1.72a1.74,1.74,0,0,1,2-1.64,2.8,2.8,0,0,1,1.34.29l-.21.64a2.43,2.43,0,0,0-1.16-.29c-.82,0-1.14.5-1.14.91,0,.57.37.85,1.21,1.17,1,.4,1.55.9,1.55,1.79s-.7,1.74-2.13,1.74a3.25,3.25,0,0,1-1.55-.38Z"/><path class="cls-1" d="M24,24.64h.78v2.92h0l.48-.65,1.86-2.27h1l-2.2,2.57,2.37,3.49h-.93l-2-3-.57.67V30.7H24Z"/><path class="cls-1" d="M36.44,27.61c0,2.08-1.27,3.19-2.82,3.19a2.78,2.78,0,0,1-2.73-3.08,2.88,2.88,0,0,1,2.82-3.18A2.77,2.77,0,0,1,36.44,27.61Zm-4.71.1c0,1.29.7,2.45,1.93,2.45s2-1.14,2-2.52c0-1.2-.63-2.46-1.94-2.46S31.73,26.37,31.73,27.71Z"/><path class="cls-1" d="M45.41,30.7l-2-6.06h.84l.95,3c.26.82.49,1.56.65,2.27h0c.17-.7.42-1.46.69-2.26l1-3h.84L46.27,30.7Z"/><path class="cls-1" d="M52.4,24.64V30.7h-.78V24.64Z"/><path class="cls-1" d="M56.18,29.75a2.86,2.86,0,0,0,1.41.39c.8,0,1.27-.42,1.27-1s-.33-.89-1.15-1.21c-1-.35-1.6-.86-1.6-1.72a1.74,1.74,0,0,1,2-1.64,2.8,2.8,0,0,1,1.34.29l-.21.64a2.38,2.38,0,0,0-1.15-.29c-.83,0-1.15.5-1.15.91,0,.57.37.85,1.21,1.17,1,.4,1.55.9,1.55,1.79s-.7,1.74-2.13,1.74A3.25,3.25,0,0,1,56,30.41Z"/><path class="cls-1" d="M64,24.64v3.59c0,1.36.6,1.93,1.41,1.93s1.48-.59,1.48-1.93V24.64h.79v3.53c0,1.87-1,2.63-2.29,2.63s-2.18-.71-2.18-2.59V24.64Z"/><path class="cls-1" d="M72.26,28.79l-.63,1.91h-.81l2.07-6.06h.94L75.9,30.7h-.84l-.64-1.91Zm2-.61-.59-1.74c-.14-.4-.22-.76-.31-1.11h0c-.09.36-.19.73-.31,1.1l-.59,1.75Z"/><path class="cls-1" d="M79.31,24.64h.78v5.41h2.6v.65H79.31Z"/><circle class="cls-2" cx="19.34" cy="77.86" r="19"/><path d="M19.34,69.53l-1.41,1.41,5.58,5.59H11.34v2H23.51l-5.58,5.59,1.41,1.41,8-8Z"/></g></g></svg>