<svg xmlns="http://www.w3.org/2000/svg" viewBox="0 0 175.49 99.55"><defs><style>.cls-1{fill:#fff;}.cls-2{fill:lime;}</style></defs><title>info</title><g id="Layer_2" data-name="Layer 2"><g id="Layer_1-2" data-name="Layer 1"><path class="cls-1" d="M.68,27.41a7.88,7.88,0,0,1,1.44-.13,2.54,2.54,0,0,1,1.66.44,1.28,1.28,0,0,1,.51,1.07,1.45,1.45,0,0,1-1,1.34h0a1.58,1.58,0,0,1,1.25,1.53A1.65,1.65,0,0,1,4,32.88a3.05,3.05,0,0,1-2.1.57,10.67,10.67,0,0,1-1.22-.07Zm.79,2.48h.71c.83,0,1.31-.43,1.31-1s-.54-1-1.33-1a3,3,0,0,0-.69.06Zm0,2.91a3.73,3.73,0,0,0,.65,0c.81,0,1.56-.3,1.56-1.18S3,30.49,2.12,30.49H1.47Z"/><path class="cls-1" d="M11.22,30.55H8.87v2.19h2.62v.65H8.08V27.33h3.28V28H8.87V29.9h2.35Z"/><path class="cls-1" d="M15,27.41a8.21,8.21,0,0,1,1.5-.13,2.45,2.45,0,0,1,1.76.5,1.53,1.53,0,0,1,.48,1.15,1.6,1.6,0,0,1-1.15,1.55v0a1.52,1.52,0,0,1,.89,1.23A10,10,0,0,0,19,33.39h-.81a7.79,7.79,0,0,1-.4-1.44c-.18-.84-.51-1.16-1.22-1.18h-.74v2.62H15Zm.78,2.76h.8c.84,0,1.37-.46,1.37-1.15s-.56-1.13-1.39-1.14a3,3,0,0,0-.78.08Z"/><path class="cls-1" d="M23.17,27.33v6.06h-.78V27.33Z"/><path class="cls-1" d="M28.22,28H26.37v-.66h4.49V28H29v5.4h-.79Z"/><path class="cls-1" d="M34.36,31.49l-.63,1.9h-.81L35,27.33h1L38,33.39h-.84l-.65-1.9Zm2-.62-.59-1.74c-.14-.4-.23-.76-.32-1.11h0c-.09.36-.18.73-.3,1.1l-.6,1.75Z"/><path class="cls-1" d="M6.09,15.62H1.2V0H6.09Z"/><path class="cls-1" d="M9.32,4.33H14V6.26a7.47,7.47,0,0,1,5.61-2.19h.15c3.94,0,5.5,2.23,5.5,4.41v7.14H20.49V10c0-1.75-.94-2.82-3-2.82S14,8.44,14,10.29v5.33H9.32Z"/><path class="cls-1" d="M36.75,2.77H34.92c-.73,0-.88.27-.88.93v.63h2.71v3.1H34v8.19H29.42V7.43H27.26V4.33h2.16V3c0-1.41.67-3,3.93-3h3.4Z"/><path class="cls-1" d="M46.54,15.94c-6.56,0-8.13-3.24-8.13-5.84V9.72C38.41,7.12,40,4,46.51,4H48c6.88,0,8.08,3.15,8.08,5.71v.38c0,2.6-1.11,5.84-8.08,5.84Zm4.8-6v-.1c0-1.41-.9-2.86-4.05-2.86h0C44.08,7,43.2,8.44,43.2,9.87V10c0,1.33.88,2.92,4.07,2.92S51.34,11.3,51.34,10Z"/><path class="cls-1" d="M63.27,15.62H58.59V4.33h4.64v2a5.26,5.26,0,0,1,4.58-2.25H68c3.27,0,4.6,2.12,4.6,5v.65H68.12c0-1.45-.63-2.71-2.39-2.71h0a2.49,2.49,0,0,0-2.44,2.73Z"/><path class="cls-1" d="M75.07,15.62V4.33h4.64v2a7,7,0,0,1,5.38-2.21h.15c2.41,0,3.82,1,4.51,2.25a7.86,7.86,0,0,1,5.69-2.25h.17c3.76,0,5.21,2.29,5.21,4.41v7.14H96.09V10c0-1.66-.71-2.82-2.56-2.82a3,3,0,0,0-3.23,3.07v5.33H85.57V10c0-1.66-.73-2.82-2.58-2.82a3,3,0,0,0-3.23,3.07v5.33Z"/><path class="cls-1" d="M108.67,15.83h-.27c-3.8,0-5.25-1.76-5.25-3.69V12c0-2.08,1.37-3.07,4.75-3.38l5.16-.48c.53-.07.72-.24.72-.59s-.19-.93-2.94-.93h-.11c-2.79,0-2.9.89-3,1.26h-4.35v0c0-1.49.45-3.82,6.74-3.82h1.16c6.55,0,7,2,7,3.65V12c0,.33.1.57.59.57h.61v3.06h-3.8a1.69,1.69,0,0,1-1.79-1.55C113.42,14.68,112,15.83,108.67,15.83Zm5.11-5.58-4.48.69c-1.19.19-1.7.4-1.7,1.05v0c0,.61.46,1.28,2.06,1.28,2.5,0,4.12-1.34,4.12-2.69Z"/><path class="cls-1" d="M125.54,15.62c-2,0-2.8-1.26-2.8-3.21v-5h-2.2V4.33h2.2V1h4.62v3.3h2.23v3.1h-2.23v4.1c0,.61.13,1,1,1h1.28v3.11Z"/><path class="cls-1" d="M136.92,3.23h-4.68V0h4.68Zm0,12.39h-4.68V4.33h4.68Z"/><path class="cls-1" d="M147.54,15.94c-6.55,0-8.12-3.24-8.12-5.84V9.72c0-2.6,1.55-5.71,8.1-5.71H149c6.89,0,8.09,3.15,8.09,5.71v.38c0,2.6-1.12,5.84-8.09,5.84Zm4.81-6v-.1c0-1.41-.9-2.86-4-2.86h0c-3.19,0-4.07,1.43-4.07,2.86V10c0,1.33.88,2.92,4.07,2.92S152.35,11.3,152.35,10Z"/><path class="cls-1" d="M159.6,4.33h4.64V6.26a7.42,7.42,0,0,1,5.6-2.19H170c3.95,0,5.5,2.23,5.5,4.41v7.14h-4.72V10c0-1.75-1-2.82-3-2.82s-3.46,1.22-3.46,3.07v5.33H159.6Z"/><circle class="cls-2" cx="19" cy="80.55" r="19"/><path d="M19,72.22l-1.41,1.41,5.58,5.59H11v2H23.17l-5.58,5.59L19,88.22l8-8Z"/></g></g></svg>