<svg xmlns="http://www.w3.org/2000/svg" viewBox="0 0 108.88 99.55"><defs><style>.cls-1{fill:#fff;}.cls-2{fill:lime;}</style></defs><title>lineup_1</title><g id="Layer_2" data-name="Layer 2"><g id="Layer_1-2" data-name="Layer 1"><path class="cls-1" d="M6.09,0V11.74H16.94v3.88H1.2V0Z"/><path class="cls-1" d="M24.27,3.23H19.59V0h4.68Zm0,12.39H19.59V4.33h4.68Z"/><path class="cls-1" d="M27.3,4.33h4.64V6.26a7.47,7.47,0,0,1,5.61-2.19h.14c4,0,5.5,2.23,5.5,4.41v7.14H38.47V10c0-1.75-.95-2.82-3-2.82S32,8.44,32,10.29v5.33H27.3Z"/><path class="cls-1" d="M62.56,11.65c0,1.54-1,4.29-7.75,4.29h-1.2c-6,0-8-2.82-8-5.78V9.7C45.65,6.8,47.38,4,53.48,4h1.29c6.63,0,7.85,3.34,7.85,6.09v.78H50.25c.27,1.32,1.41,2.2,4,2.2h0c3.11,0,3.61-1.18,3.68-1.45h4.62Zm-8.47-5c-2.35,0-3.4.72-3.75,1.91h7.55c-.31-1.19-1.4-1.91-3.77-1.91Z"/><path class="cls-1" d="M88.24,15.62H83.6V13.67a7.47,7.47,0,0,1-5.48,2.2H78c-3.88,0-5.38-2.39-5.38-4.51v-7H77.3V9.91a2.58,2.58,0,0,0,2.9,2.81c2,0,3.36-1.21,3.36-3.06V4.33h4.68Z"/><path class="cls-1" d="M96,4.33V5.94a8.44,8.44,0,0,1,5.73-1.89h.38c5.12,0,6.82,2.56,6.82,5.67v.4c0,3-1.76,5.77-7,5.77h-.34A8,8,0,0,1,96,14v5.54H91.26V4.33ZM96,10c0,1.41,1.32,2.94,4.18,2.94h.1c3,0,3.86-1.57,3.86-2.94V9.89c0-1.45-.84-2.92-3.86-2.92h-.1C97.21,7,96,8.44,96,9.89Z"/><path class="cls-1" d="M3.83,30.55H1.47v2.19H4.1v.65H.68V27.33H4V28H1.47V29.9H3.83Z"/><path class="cls-1" d="M7.63,33.39V27.33h.86l1.94,3.07a17.49,17.49,0,0,1,1.09,2h0c-.07-.81-.09-1.55-.09-2.49V27.33h.74v6.06h-.8L9.47,30.32a21,21,0,0,1-1.14-2h0c0,.76.06,1.49.06,2.5v2.59Z"/><path class="cls-1" d="M17.23,28H15.38v-.66h4.49V28H18v5.4h-.79Z"/><path class="cls-1" d="M26.21,30.55H23.85v2.19h2.63v.65H23.07V27.33h3.27V28H23.85V29.9h2.36Z"/><path class="cls-1" d="M30,27.41a8.33,8.33,0,0,1,1.51-.13,2.43,2.43,0,0,1,1.75.5,1.49,1.49,0,0,1,.48,1.15,1.6,1.6,0,0,1-1.14,1.55v0a1.54,1.54,0,0,1,.89,1.23A9.09,9.09,0,0,0,34,33.39h-.81A7.5,7.5,0,0,1,32.75,32c-.18-.84-.5-1.16-1.21-1.18H30.8v2.62H30Zm.79,2.76h.8c.84,0,1.37-.46,1.37-1.15s-.57-1.13-1.4-1.14a2.83,2.83,0,0,0-.77.08Z"/><path class="cls-1" d="M38.61,28H36.76v-.66h4.5V28H39.4v5.4h-.79Z"/><path class="cls-1" d="M44.76,31.49l-.63,1.9h-.81l2.06-6.06h.94l2.07,6.06h-.83l-.65-1.9Zm2-.62-.6-1.74c-.13-.4-.22-.76-.31-1.11h0c-.09.36-.19.73-.31,1.1l-.59,1.75Z"/><path class="cls-1" d="M52.59,27.33v6.06H51.8V27.33Z"/><path class="cls-1" d="M56.47,33.39V27.33h.86l1.94,3.07a16,16,0,0,1,1.09,2h0c-.07-.81-.09-1.55-.09-2.49V27.33H61v6.06h-.79l-1.93-3.07a18.92,18.92,0,0,1-1.13-2h0c0,.76.06,1.49.06,2.5v2.59Z"/><path class="cls-1" d="M70,30.73c0-.85-.1-1.86-.09-2.62h0c-.2.71-.46,1.47-.76,2.31l-1.07,2.94h-.6l-1-2.89c-.29-.86-.53-1.64-.7-2.36h0c0,.76-.06,1.77-.12,2.68l-.16,2.6h-.75l.43-6.06h1l1,2.93c.25.75.46,1.41.61,2.05h0c.15-.62.37-1.28.64-2.05l1.08-2.93h1L71,33.39h-.77Z"/><path class="cls-1" d="M77.81,30.55H75.46v2.19h2.63v.65H74.67V27.33H78V28H75.46V29.9h2.35Z"/><path class="cls-1" d="M81.62,33.39V27.33h.85l2,3.07a17.49,17.49,0,0,1,1.09,2h0c-.07-.81-.09-1.55-.09-2.49V27.33h.74v6.06h-.8l-1.92-3.07a19.06,19.06,0,0,1-1.14-2h0c0,.76.06,1.49.06,2.5v2.59Z"/><path class="cls-1" d="M91.22,28H89.37v-.66h4.49V28H92v5.4h-.79Z"/><circle class="cls-2" cx="19" cy="80.55" r="19"/><path d="M19,72.22l-1.41,1.41,5.58,5.59H11v2H23.17l-5.58,5.59L19,88.22l8-8Z"/></g></g></svg>