<svg xmlns="http://www.w3.org/2000/svg" viewBox="0 0 99.09 99.55"><defs><style>.cls-1{fill:#fff;}.cls-2{fill:lime;}</style></defs><title>merch_1</title><g id="Layer_2" data-name="Layer 2"><g id="Layer_1-2" data-name="Layer 1"><path class="cls-1" d="M1.2,0h7l5.39,9.72L19,0h6.7V15.62H20.83V4.81L14.68,15.62H12.05L5.9,4.81V15.62H1.2Z"/><path class="cls-1" d="M45.27,11.65c0,1.54-1,4.29-7.75,4.29H36.33c-6,0-8-2.82-8-5.78V9.7C28.37,6.8,30.09,4,36.2,4h1.28c6.64,0,7.85,3.34,7.85,6.09v.78H33c.27,1.32,1.4,2.2,4,2.2h0c3.11,0,3.61-1.18,3.67-1.45h4.62Zm-8.46-5c-2.35,0-3.4.72-3.76,1.91h7.56c-.31-1.19-1.41-1.91-3.78-1.91Z"/><path class="cls-1" d="M52.5,15.62H47.82V4.33h4.64v2A5.25,5.25,0,0,1,57,4.07h.23c3.28,0,4.6,2.12,4.6,5v.65H57.35c0-1.45-.63-2.71-2.4-2.71h0A2.49,2.49,0,0,0,52.5,9.78Z"/><path class="cls-1" d="M71.65,15.94c-6.45,0-7.87-3.3-7.87-5.82V9.7c0-2.52,1.4-5.69,7.85-5.69h1.2c7,0,7.93,3.42,7.93,4.93V9H76c-.1-.44-.52-2-3.73-2h-.07c-2.73,0-3.59,1.37-3.59,2.79v.15c0,1.51.88,3,3.59,3h.07c3.17,0,3.63-1.63,3.73-2.07h4.81v0c0,1.57-.73,5-8,5Z"/><path class="cls-1" d="M83.2,0h4.68V6.21a7.53,7.53,0,0,1,5.57-2.14h.14c3.91,0,5.5,2.23,5.5,4.41v7.14H94.37V10c0-1.75-.94-2.82-3-2.82s-3.47,1.22-3.47,3.07v5.33H83.2Z"/><path class="cls-1" d="M5.3,33.12a5.48,5.48,0,0,1-1.86.34,3.14,3.14,0,0,1-2.27-.8A3.15,3.15,0,0,1,.32,30.4a3,3,0,0,1,3.29-3.14,3.85,3.85,0,0,1,1.51.28l-.19.64a3.2,3.2,0,0,0-1.34-.26,2.27,2.27,0,0,0-2.44,2.44,2.23,2.23,0,0,0,2.34,2.45,2.57,2.57,0,0,0,1-.16V30.84H3.3v-.63h2Z"/><path class="cls-1" d="M12.16,30.55H9.8v2.19h2.63v.65H9V27.33h3.27V28H9.8V29.9h2.36Z"/><path class="cls-1" d="M17.26,28H15.42v-.66h4.49V28H18.05v5.4h-.79Z"/><path class="cls-1" d="M28.31,27.33v6.06h-.78V27.33Z"/><path class="cls-1" d="M33.35,28H31.51v-.66H36V28H34.15v5.4h-.8Z"/><path class="cls-1" d="M43.62,33.39V27.33h.86l1.94,3.07a17.49,17.49,0,0,1,1.09,2h0c-.07-.81-.09-1.55-.09-2.49V27.33h.74v6.06h-.8l-1.92-3.07a19.06,19.06,0,0,1-1.14-2h0c0,.76.06,1.49.06,2.5v2.59Z"/><path class="cls-1" d="M57.25,30.3c0,2.09-1.27,3.19-2.82,3.19a2.78,2.78,0,0,1-2.73-3.07,2.89,2.89,0,0,1,2.82-3.19A2.76,2.76,0,0,1,57.25,30.3Zm-4.71.1c0,1.29.7,2.45,1.94,2.45s1.94-1.14,1.94-2.52c0-1.2-.63-2.46-1.94-2.46S52.54,29.06,52.54,30.4Z"/><path class="cls-1" d="M61.77,33.39l-1.54-6.06h.83l.72,3.07c.18.75.35,1.51.45,2.09h0c.1-.6.29-1.32.5-2.1l.81-3.06h.82l.73,3.08a20.89,20.89,0,0,1,.43,2.08h0c.12-.67.29-1.35.48-2.1l.8-3.06h.8l-1.71,6.06h-.82l-.77-3.16a17.36,17.36,0,0,1-.4-2h0a20.28,20.28,0,0,1-.47,2l-.87,3.16Z"/><circle class="cls-2" cx="19" cy="80.55" r="19"/><path d="M19,72.22l-1.41,1.41,5.58,5.59H11v2H23.17l-5.58,5.59L19,88.22l8-8Z"/></g></g></svg>