<svg xmlns="http://www.w3.org/2000/svg" viewBox="0 0 30.09 30.7"><defs><style>.cls-1{fill:#fff;}</style></defs><title>gp</title><g id="Layer_2" data-name="Layer 2"><g id="Layer_1-2" data-name="Layer 1"><path class="cls-1" d="M29.76,12.55H15.35v5.7h8.46a7.48,7.48,0,0,1-3.14,5h0a9.08,9.08,0,0,1-5.32,1.54,9.24,9.24,0,0,1-8.73-6.38h0a9.32,9.32,0,0,1-.51-3,9.88,9.88,0,0,1,.49-3,9.28,9.28,0,0,1,8.75-6.37,8.53,8.53,0,0,1,5.94,2.28L25.62,4A14.76,14.76,0,0,0,15.35,0a15.35,15.35,0,0,0,0,30.7A14.6,14.6,0,0,0,25.52,27a15,15,0,0,0,4.57-11.29A12.77,12.77,0,0,0,29.76,12.55Z"/></g></g></svg>