<svg xmlns="http://www.w3.org/2000/svg" viewBox="0 0 25.58 222.01"><defs><style>.cls-1,.cls-2,.cls-4{fill:#fff;}.cls-2,.cls-4{font-size:9px;}.cls-2{font-family:MyriadPro-Bold, Myriad Pro;font-weight:700;letter-spacing:0.16em;}.cls-3{letter-spacing:0.15em;}.cls-4{font-family:MyriadPro-Regular, Myriad Pro;letter-spacing:0.18em;}.cls-5{letter-spacing:0.17em;}.cls-6{letter-spacing:0.18em;}</style></defs><title>instagram_left</title><g id="Layer_2" data-name="Layer 2"><g id="Layer_1-2" data-name="Layer 1"><path class="cls-1" d="M8.53,129.45a4.26,4.26,0,1,1,4.26,4.26,4.26,4.26,0,0,1-4.26-4.26m-2.31,0a6.57,6.57,0,1,0,6.57-6.57,6.57,6.57,0,0,0-6.57,6.57m11.86-6.83a1.54,1.54,0,1,0,1.54-1.53h0a1.54,1.54,0,0,0-1.54,1.53M7.62,139.86a7,7,0,0,1-2.37-.44,3.83,3.83,0,0,1-1.47-1,3.83,3.83,0,0,1-1-1.47,7,7,0,0,1-.44-2.37c-.06-1.35-.07-1.75-.07-5.17s0-3.82.07-5.17a7.3,7.3,0,0,1,.44-2.37,3.83,3.83,0,0,1,1-1.47,3.83,3.83,0,0,1,1.47-1A7,7,0,0,1,7.62,119C9,119,9.37,119,12.79,119s3.82,0,5.17.07a7.3,7.3,0,0,1,2.37.44,3.91,3.91,0,0,1,1.47,1,3.83,3.83,0,0,1,1,1.47,7.3,7.3,0,0,1,.44,2.37c.06,1.35.07,1.76.07,5.17s0,3.82-.07,5.17a7.24,7.24,0,0,1-.44,2.37,3.83,3.83,0,0,1-1,1.47,3.91,3.91,0,0,1-1.47,1,7,7,0,0,1-2.37.44c-1.35.06-1.76.07-5.17.07s-3.82,0-5.17-.07m-.1-23.12a9.47,9.47,0,0,0-3.11.59,6.32,6.32,0,0,0-2.26,1.48,6.19,6.19,0,0,0-1.48,2.26,9.59,9.59,0,0,0-.59,3.11C0,125.54,0,126,0,129.45s0,3.91.08,5.27a9.59,9.59,0,0,0,.59,3.11,6.19,6.19,0,0,0,1.48,2.26,6.32,6.32,0,0,0,2.26,1.48,9.53,9.53,0,0,0,3.11.59c1.36.06,1.8.08,5.27.08s3.91,0,5.27-.08a9.46,9.46,0,0,0,3.1-.59,6.59,6.59,0,0,0,3.75-3.74,9.59,9.59,0,0,0,.59-3.11c.06-1.36.08-1.8.08-5.27s0-3.91-.08-5.27a9.59,9.59,0,0,0-.59-3.11,6.62,6.62,0,0,0-3.74-3.74,9.59,9.59,0,0,0-3.11-.59c-1.36-.06-1.8-.08-5.27-.08s-3.91,0-5.27.08"/><text class="cls-2" transform="translate(14.21 222.01) rotate(-90)">instag<tspan class="cls-3" x="33.61" y="0">r</tspan><tspan x="38.37" y="0">am</tspan></text><text class="cls-4" transform="translate(14.29 95.17) rotate(-90)">@posk<tspan class="cls-5" x="32.58" y="0">o</tspan><tspan class="cls-6" x="39.08" y="0">visual2018</tspan></text></g></g></svg>