<svg xmlns="http://www.w3.org/2000/svg" viewBox="0 0 395.72 69.5"><defs><style>.cls-1{font-size:60.15px;fill:#fff;font-family:Druk-WideMedium, Druk Wide;letter-spacing:0.05em;}.cls-2{fill:lime;}</style></defs><title>share_text</title><g id="Layer_2" data-name="Layer 2"><g id="Layer_1-2" data-name="Layer 1"><text class="cls-1" transform="translate(0 52.48)">share</text><path class="cls-2" d="M361.57,0a34.15,34.15,0,1,0,34.15,34.15A34.19,34.19,0,0,0,361.57,0Zm0,64a29.88,29.88,0,1,1,29.88-29.88A29.91,29.91,0,0,1,361.57,64Z"/><circle class="cls-2" cx="349.32" cy="22.8" r="4.63"/><circle class="cls-2" cx="373.82" cy="22.8" r="4.63"/><path class="cls-2" d="M383.49,39a2.12,2.12,0,0,0-2.65,1.43c0,.13-4,12.75-19.27,12.75S342.46,41,342.3,40.45a2.14,2.14,0,0,0-4.09,1.23c.05.16,4.94,15.8,23.36,15.8s23.31-15.64,23.36-15.8A2.14,2.14,0,0,0,383.49,39Z"/></g></g></svg>