<svg xmlns="http://www.w3.org/2000/svg" viewBox="0 0 394.7 68.3"><defs><style>.cls-1{fill:#fff;}.cls-2{fill:lime;}</style></defs><title>share_text_1</title><g id="Layer_2" data-name="Layer 2"><g id="Layer_1-2" data-name="Layer 1"><path class="cls-1" d="M20.81,53.38C1.92,53.38,0,46,0,41.89v-.36H13.83c0,1.2.49,4.39,8.31,4.39h.12c7.45,0,8.36-1.5,8.36-3.07v-.12c0-1.68-.79-2.64-7.1-2.82l-5.78-.12C3.67,39.49.3,34.43.3,29.68v-.36c0-5,2.65-10.11,20.45-10.11h2.41c16.36,0,20.27,5.12,20.27,10.17v.42H29.77c-.18-1.2-.78-3.31-8-3.31h-.06c-6.43,0-7.69.78-7.69,2.41V29c0,1.44,1.2,2.4,6.79,2.59l5.78.12c14.91.3,18,3.66,18,10.16v.36c0,6-3.49,11.13-21.35,11.13Z"/><path class="cls-1" d="M51.67,7.73H65.08v17.8c1.45-1.44,6.32-6.14,15.94-6.14h.43C92.63,19.39,97.2,25.77,97.2,32V52.48H83.67v-16c0-5-2.71-8.06-8.66-8.06s-9.93,3.49-9.93,8.78V52.48H51.67Z"/><path class="cls-1" d="M119.7,53.08h-.78c-10.89,0-15-5-15-10.59v-.42c0-6,3.91-8.78,13.6-9.68L132.27,31c1.51-.18,2-.66,2-1.68,0-1.2-.54-2.65-8.42-2.65h-.3c-8,0-8.3,2.53-8.48,3.61H104.67v-.12c0-4.27,1.26-10.95,19.3-10.95h3.31c18.77,0,20,5.78,20,10.47V42.07c0,1,.3,1.63,1.69,1.63h1.74v8.78H139.79A4.84,4.84,0,0,1,134.68,48C133.3,49.77,129.21,53.08,119.7,53.08Zm14.62-16-12.81,2c-3.43.55-4.87,1.15-4.87,3v.06c0,1.75,1.32,3.67,5.89,3.67,7.16,0,11.79-3.85,11.79-7.7Z"/><path class="cls-1" d="M170.29,52.48H156.88V20.12h13.29v5.71c1.14-1.8,5.05-6.44,13.11-6.44h.66c9.39,0,13.18,6.08,13.18,14.44V35.7H184.19c0-4.16-1.81-7.76-6.86-7.76h-.06c-4.51,0-7,3.67-7,7.82Z"/><path class="cls-1" d="M251,41.11c0,4.39-2.88,12.27-22.19,12.27h-3.43c-17.26,0-22.8-8.06-22.8-16.54V35.52c0-8.31,4.93-16.31,22.44-16.31h3.67c19,0,22.49,9.57,22.49,17.45v2.22H215.76c.79,3.79,4,6.32,11.43,6.32h.06c8.91,0,10.35-3.37,10.53-4.15H251ZM226.77,26.73c-6.73,0-9.74,2.05-10.76,5.48h21.65c-.9-3.43-4-5.48-10.83-5.48Z"/><path class="cls-2" d="M360.55,0A34.15,34.15,0,1,0,394.7,34.15,34.19,34.19,0,0,0,360.55,0Zm0,64a29.88,29.88,0,1,1,29.88-29.88A29.92,29.92,0,0,1,360.55,64Z"/><circle class="cls-2" cx="348.29" cy="22.8" r="4.63"/><circle class="cls-2" cx="372.8" cy="22.8" r="4.63"/><path class="cls-2" d="M382.47,39a2.14,2.14,0,0,0-2.66,1.43c0,.13-4,12.75-19.26,12.75S341.44,41,341.28,40.45a2.14,2.14,0,0,0-4.09,1.23c.05.16,4.94,15.8,23.36,15.8s23.31-15.64,23.35-15.8A2.13,2.13,0,0,0,382.47,39Z"/></g></g></svg>