<svg xmlns="http://www.w3.org/2000/svg" viewBox="0 0 32.24 26.2"><defs><style>.cls-1{fill:#fff;}</style></defs><title>tw</title><g id="Layer_2" data-name="Layer 2"><g id="Layer_1-2" data-name="Layer 1"><path class="cls-1" d="M21.54,0h1.52l.55.11a6.26,6.26,0,0,1,1,.28,6.9,6.9,0,0,1,.87.41,7.84,7.84,0,0,1,.77.47,5.15,5.15,0,0,1,.61.51.83.83,0,0,0,.83.14,12.42,12.42,0,0,0,1.22-.36c.44-.16.87-.33,1.3-.53s.68-.31.78-.37l.14-.08h0l0,0h0l0,0h.11V.55l0,0v0l0,0v0l0,0a.37.37,0,0,0,0,.12c0,.05-.11.24-.28.58a7.09,7.09,0,0,1-.66,1,4.88,4.88,0,0,1-.7.79,4.6,4.6,0,0,0-.41.38,1.29,1.29,0,0,1-.25.2l-.15.1h0l0,0h0l0,0h.08l.82-.17c.54-.12,1.06-.26,1.55-.42l.79-.26.09,0,0,0h0l0,0h.17v.06h-.1v0l0,0h0s-.12.17-.37.49a4.54,4.54,0,0,1-.39.5s0,0-.08.09a7.76,7.76,0,0,1-.62.64,11.28,11.28,0,0,1-1.11,1A1.38,1.38,0,0,0,29,7.15c0,.43,0,.91-.07,1.46a17.6,17.6,0,0,1-.21,1.75c-.11.63-.28,1.35-.5,2.14a18.87,18.87,0,0,1-.81,2.33,18.28,18.28,0,0,1-1,2c-.34.6-.66,1.11-.95,1.53s-.59.81-.89,1.18-.68.78-1.14,1.24l-.76.76s-.23.2-.57.47-.69.56-1.07.84a12.16,12.16,0,0,1-1.06.68c-.32.19-.7.4-1.15.64s-.94.45-1.46.66-1.08.39-1.66.57a14.18,14.18,0,0,1-1.69.4c-.54.1-1.15.18-1.84.25l-1,.1v0H9.22v0H9l-.41,0L7.36,26c-.7-.1-1.25-.2-1.65-.29s-1-.28-1.77-.56a16.47,16.47,0,0,1-2-.82l-1-.52a4.94,4.94,0,0,1-.47-.27l-.26-.16H.09l0,0H0V23.2H.19l.71,0c.39,0,.8,0,1.24,0a12.46,12.46,0,0,0,1.33-.13,14.24,14.24,0,0,0,1.62-.35,12.22,12.22,0,0,0,1.71-.58c.52-.23.88-.4,1.1-.52a10.4,10.4,0,0,0,1-.61l.67-.45h.11V20.5H9.48l-.45,0a4.06,4.06,0,0,1-.69-.13,7.54,7.54,0,0,1-1-.35,8.75,8.75,0,0,1-1-.55,5.3,5.3,0,0,1-.73-.54c-.15-.13-.34-.33-.58-.59a6.31,6.31,0,0,1-.62-.79,8.14,8.14,0,0,1-.5-.94L3.62,16v0l0-.05v-.06h.08l.32,0a7,7,0,0,0,1,0,7.45,7.45,0,0,0,.94-.06l.32-.05.06,0h.07l.07,0h0l-.06,0H6.31l-.06,0H6.19L6,15.64c-.1,0-.36-.13-.79-.32a5.42,5.42,0,0,1-1-.54,5,5,0,0,1-.72-.57,7.75,7.75,0,0,1-.75-.81A5.66,5.66,0,0,1,2,12.25,7.24,7.24,0,0,1,1.51,11,7.92,7.92,0,0,1,1.3,9.8l-.05-.61h.06l0,0h0l0,0h0l.46.2A5,5,0,0,0,3,9.81l.8.16.13,0h.21l0,0H4l0,0H4l-.25-.18a3.67,3.67,0,0,1-.5-.48c-.18-.19-.35-.39-.53-.61a4.51,4.51,0,0,1-.46-.68A7,7,0,0,1,1.81,7a6.55,6.55,0,0,1-.34-1.12,6.21,6.21,0,0,1-.13-1.12,6.74,6.74,0,0,1,0-.94,5.73,5.73,0,0,1,.17-.89,6.74,6.74,0,0,1,.38-1l.25-.55v0l0-.05h.08l0,0v0h0l.39.44c.26.29.57.62.93,1a6.65,6.65,0,0,0,.59.56.45.45,0,0,1,.15.14A6.34,6.34,0,0,0,5,3.91c.33.27.76.59,1.3,1S7.39,5.57,8,5.92a17.39,17.39,0,0,0,2.09.94c.75.28,1.27.47,1.57.55s.82.2,1.54.34S14.52,8,14.89,8l.75.07h.21V8l-.06-.37a6.6,6.6,0,0,1-.06-1,6.44,6.44,0,0,1,.11-1.2,6.9,6.9,0,0,1,.3-1.12,6.37,6.37,0,0,1,.4-.91A7,7,0,0,1,17,2.6a6.08,6.08,0,0,1,.83-.9A5.91,5.91,0,0,1,19,.87,7.81,7.81,0,0,1,20.24.32a5,5,0,0,1,.93-.25Z"/></g></g></svg>