<svg xmlns="http://www.w3.org/2000/svg" viewBox="0 0 155.56 94.55"><defs><style>.cls-1{fill:#fff;}.cls-2{fill:lime;}</style></defs><title>aboutus_1</title><g id="Layer_2" data-name="Layer 2"><g id="Layer_1-2" data-name="Layer 1"><path class="cls-1" d="M3.25,22.4a9.34,9.34,0,0,1,1.5-.12,2.45,2.45,0,0,1,1.7.51A1.61,1.61,0,0,1,7,24.06a1.78,1.78,0,0,1-.46,1.29A2.5,2.5,0,0,1,4.66,26,3,3,0,0,1,4,26V28.4H3.25ZM4,25.33a2.93,2.93,0,0,0,.65.06c.94,0,1.52-.46,1.52-1.3s-.57-1.18-1.43-1.18A3.16,3.16,0,0,0,4,23Z"/><path class="cls-1" d="M15.74,25.3c0,2.09-1.27,3.2-2.82,3.2a2.78,2.78,0,0,1-2.72-3.08A2.88,2.88,0,0,1,13,22.23,2.76,2.76,0,0,1,15.74,25.3ZM11,25.4c0,1.3.7,2.46,1.94,2.46s1.94-1.15,1.94-2.52c0-1.21-.63-2.47-1.93-2.47S11,24.07,11,25.4Z"/><path class="cls-1" d="M19.17,27.44a2.72,2.72,0,0,0,1.4.4c.81,0,1.27-.42,1.27-1s-.32-.89-1.14-1.2c-1-.35-1.6-.87-1.6-1.72a1.74,1.74,0,0,1,2-1.65,2.78,2.78,0,0,1,1.34.3l-.22.64A2.35,2.35,0,0,0,21,22.88c-.83,0-1.14.49-1.14.91,0,.57.37.84,1.21,1.17,1,.39,1.54.89,1.54,1.78s-.69,1.75-2.12,1.75A3.07,3.07,0,0,1,19,28.1Z"/><path class="cls-1" d="M26.23,22.33H27v2.93h0l.48-.65,1.86-2.28h1l-2.2,2.57,2.37,3.5h-.93l-2-3-.57.66V28.4h-.79Z"/><path class="cls-1" d="M38.66,25.3c0,2.09-1.27,3.2-2.81,3.2a2.78,2.78,0,0,1-2.73-3.08,2.89,2.89,0,0,1,2.82-3.19A2.76,2.76,0,0,1,38.66,25.3Zm-4.7.1c0,1.3.7,2.46,1.93,2.46s2-1.15,2-2.52c0-1.21-.63-2.47-1.94-2.47S34,24.07,34,25.4Z"/><path class="cls-1" d="M47.64,28.4l-2-6.07h.84l1,3c.26.82.48,1.56.65,2.27h0c.18-.71.43-1.47.7-2.26l1-3h.84L48.5,28.4Z"/><path class="cls-1" d="M54.63,22.33V28.4h-.78V22.33Z"/><path class="cls-1" d="M58.41,27.44a2.72,2.72,0,0,0,1.4.4c.81,0,1.27-.42,1.27-1s-.32-.89-1.14-1.2c-1-.35-1.6-.87-1.6-1.72a1.74,1.74,0,0,1,2-1.65,2.78,2.78,0,0,1,1.34.3l-.21.64a2.43,2.43,0,0,0-1.16-.29c-.82,0-1.14.49-1.14.91,0,.57.37.84,1.21,1.17,1,.39,1.54.89,1.54,1.78s-.69,1.75-2.12,1.75a3.13,3.13,0,0,1-1.55-.39Z"/><path class="cls-1" d="M66.26,22.33v3.59c0,1.36.6,1.94,1.41,1.94s1.48-.6,1.48-1.94V22.33h.79v3.54c0,1.86-1,2.63-2.3,2.63s-2.18-.71-2.18-2.6V22.33Z"/><path class="cls-1" d="M74.49,26.49l-.63,1.91h-.81l2.06-6.07h1l2.07,6.07h-.84l-.65-1.91Zm2-.61-.59-1.75c-.14-.4-.23-.76-.32-1.11h0c-.09.36-.18.73-.3,1.1l-.6,1.76Z"/><path class="cls-1" d="M81.54,22.33h.78v5.41h2.6v.66H81.54Z"/><circle class="cls-2" cx="21.56" cy="75.55" r="19"/><path d="M21.56,67.22l-1.41,1.41,5.58,5.59H13.56v2H25.73l-5.58,5.59,1.41,1.41,8-8Z"/><path class="cls-1" d="M5.07,13.32V3.22H0v-3H13.74v3H8.67v10.1Z"/><path class="cls-1" d="M26.26,10.27a2.4,2.4,0,0,1-.35,1.2,3.67,3.67,0,0,1-1.62,1.41,8.74,8.74,0,0,1-3.71.66h-.65a6.36,6.36,0,0,1-4.8-1.61,4.67,4.67,0,0,1-1.22-3.36V8.32A4.93,4.93,0,0,1,15,5q1.44-1.66,4.59-1.66h.77q3.42,0,4.82,1.73A5.87,5.87,0,0,1,26.3,8.85v.31H17.41a2.17,2.17,0,0,0,.76,1.45,3.44,3.44,0,0,0,2.2.6,3.52,3.52,0,0,0,1.88-.41.83.83,0,0,0,.33-.32l.11-.21Zm-8.09-4.2a1.76,1.76,0,0,0-.72,1.25h5.17a1.55,1.55,0,0,0-.46-1.15,3,3,0,0,0-2.09-.59A3.16,3.16,0,0,0,18.17,6.07Z"/><path class="cls-1" d="M28.69,3.55h3.39V5.1A4.34,4.34,0,0,1,33.38,4,5.3,5.3,0,0,1,36,3.32h.18A4.23,4.23,0,0,1,39.37,4.5a3.67,3.67,0,0,1,1,2.48v6.34H36.94V8.23a2.31,2.31,0,0,0-.53-1.53A2.26,2.26,0,0,0,34.6,6a2.4,2.4,0,0,0-1.85.72,2,2,0,0,0-.47.74,2.44,2.44,0,0,0-.16.88v5H28.69Z"/><path class="cls-1" d="M49.88,13.32H46.77a2.53,2.53,0,0,1-1.87-.67,2.71,2.71,0,0,1-.66-2V6H42.11V3.55h2.13v-3h3.41v3h2.23V6H47.65V9.6a1.34,1.34,0,0,0,.21.85,1.06,1.06,0,0,0,.81.24h1.21Z"/><path class="cls-1" d="M58.49,12.93a5.25,5.25,0,0,1-2.59.58h-.28a4.14,4.14,0,0,1-2.94-.95,2.55,2.55,0,0,1-.68-1,3,3,0,0,1-.23-1.18v-.07a2.37,2.37,0,0,1,.95-2,7,7,0,0,1,3.43-1l2.67-.22a1,1,0,0,0,.57-.19.58.58,0,0,0,.17-.45.72.72,0,0,0-.3-.65,3.55,3.55,0,0,0-1.74-.3,2.72,2.72,0,0,0-1.66.39.89.89,0,0,0-.31.69H52v0a2.69,2.69,0,0,1,.79-2c.86-.83,2.32-1.25,4.4-1.25h.54q3.15,0,4.38,1.17a2.1,2.1,0,0,1,.61,1,4.23,4.23,0,0,1,.15,1.16V9.83a1,1,0,0,0,.16.68.85.85,0,0,0,.65.18h.37v2.63H61.3a1.54,1.54,0,0,1-1.14-.44,1.78,1.78,0,0,1-.5-.92A3.66,3.66,0,0,1,58.49,12.93ZM59,10.62a1.79,1.79,0,0,0,.45-.62,1.6,1.6,0,0,0,.15-.64V8.6a13.53,13.53,0,0,1-2.15.46,6.4,6.4,0,0,0-1.7.44.77.77,0,0,0-.48.75v0a.9.9,0,0,0,.4.78,2,2,0,0,0,1.24.29A2.79,2.79,0,0,0,59,10.62Z"/><path class="cls-1" d="M66.07,3.55h3.39V5.1A4.34,4.34,0,0,1,70.76,4a5.3,5.3,0,0,1,2.66-.69h.17A4.2,4.2,0,0,1,76.74,4.5a3.51,3.51,0,0,1,.75,1.16A3.65,3.65,0,0,1,77.75,7v6.34H74.32V8.23a2.31,2.31,0,0,0-.53-1.53A2.26,2.26,0,0,0,72,6a2.4,2.4,0,0,0-1.85.72,2.15,2.15,0,0,0-.48.74,2.67,2.67,0,0,0-.15.88v5H66.07Z"/><path class="cls-1" d="M86.29,16.94c-2.19,0-3.75-.39-4.69-1.18a2.5,2.5,0,0,1-.9-2v-.07h3.64a3.16,3.16,0,0,0,.18.27.7.7,0,0,0,.28.2,3.62,3.62,0,0,0,1.69.28h.19a2.86,2.86,0,0,0,2-.59,1.86,1.86,0,0,0,.55-1.46v-.73a4.73,4.73,0,0,1-.49.44,2.54,2.54,0,0,1-.62.37,6,6,0,0,1-2.64.53H85.2a4.88,4.88,0,0,1-4-1.56A4.3,4.3,0,0,1,80.42,10a5.28,5.28,0,0,1-.26-1.66V8a5.09,5.09,0,0,1,.28-1.7,4.12,4.12,0,0,1,.84-1.45,4.19,4.19,0,0,1,1.58-1.08,5.93,5.93,0,0,1,2.29-.4h.19A6.61,6.61,0,0,1,88,3.82a4,4,0,0,1,1.2.74v-1h3.41v8.67a4.38,4.38,0,0,1-1.21,3.33,6.22,6.22,0,0,1-4.49,1.39Zm.06-11a2.82,2.82,0,0,0-2.13.74,2.16,2.16,0,0,0-.53,1.5v0a2.09,2.09,0,0,0,.55,1.48,2.76,2.76,0,0,0,2.11.75h.21a2.79,2.79,0,0,0,2.09-.74A1.77,1.77,0,0,0,89.07,9a2.16,2.16,0,0,0,.14-.79V8.13a2.13,2.13,0,0,0-.59-1.52,2.83,2.83,0,0,0-2.08-.72Z"/><path class="cls-1" d="M104.38,13.32h-3.63V.23h3.63V5.61L110.5.23h4.61l-6.9,6,7.19,7.09h-4.73l-6.29-6.16Z"/><path class="cls-1" d="M122.58,12.93a5.18,5.18,0,0,1-2.58.58h-.29a4.1,4.1,0,0,1-2.93-.95,2.47,2.47,0,0,1-.69-1,3.14,3.14,0,0,1-.23-1.18v-.07a2.39,2.39,0,0,1,1-2,7.05,7.05,0,0,1,3.43-1l2.68-.22a1,1,0,0,0,.57-.19.58.58,0,0,0,.16-.45.72.72,0,0,0-.3-.65,3.5,3.5,0,0,0-1.74-.3,2.7,2.7,0,0,0-1.65.39.9.9,0,0,0-.32.69h-3.51v0a2.69,2.69,0,0,1,.79-2c.85-.83,2.32-1.25,4.39-1.25h.55q3.15,0,4.38,1.17a2.18,2.18,0,0,1,.61,1A4.23,4.23,0,0,1,127,6.61V9.83a1.12,1.12,0,0,0,.15.68.9.9,0,0,0,.66.18h.36v2.63H125.4a1.58,1.58,0,0,1-1.15-.44,1.76,1.76,0,0,1-.49-.92A3.7,3.7,0,0,1,122.58,12.93Zm.48-2.31a1.76,1.76,0,0,0,.44-.62,1.6,1.6,0,0,0,.15-.64V8.6a13.3,13.3,0,0,1-2.14.46,6.39,6.39,0,0,0-1.71.44.78.78,0,0,0-.47.75v0a.91.91,0,0,0,.39.78,2.08,2.08,0,0,0,1.24.29A2.82,2.82,0,0,0,123.06,10.62Z"/><path class="cls-1" d="M130.16,13.32V3.55h3.4V5.14A4.07,4.07,0,0,1,134.77,4a4.75,4.75,0,0,1,2.5-.69h.14a4.12,4.12,0,0,1,2.18.53,3.57,3.57,0,0,1,1.32,1.43,4.71,4.71,0,0,1,1.55-1.34A5.38,5.38,0,0,1,145,3.32h.16a3.87,3.87,0,0,1,3.18,1.31,4.15,4.15,0,0,1,.88,2.74v6h-3.43V8.23a2.43,2.43,0,0,0-.47-1.53A2,2,0,0,0,143.64,6a2.07,2.07,0,0,0-1.69.72,2.21,2.21,0,0,0-.41.74,2.84,2.84,0,0,0-.14.88v5H138V8.23a2.37,2.37,0,0,0-.48-1.53,2.37,2.37,0,0,0-3.36,0,2.52,2.52,0,0,0-.41.74,2.67,2.67,0,0,0-.15.88v5Z"/><path class="cls-1" d="M155.56,0V2.46h-3.5V0Zm0,3.55v9.77H152.1V3.55Z"/></g></g></svg>