<svg xmlns="http://www.w3.org/2000/svg" viewBox="0 0 110.53 94.55"><defs><style>.cls-1{fill:#fff;}.cls-2{fill:lime;}</style></defs><title>info_2</title><g id="Layer_2" data-name="Layer 2"><g id="Layer_1-2" data-name="Layer 1"><path class="cls-1" d="M1.47,22.41a7.68,7.68,0,0,1,1.43-.13,2.46,2.46,0,0,1,1.66.45,1.25,1.25,0,0,1,.51,1.07,1.44,1.44,0,0,1-1,1.33v0a1.55,1.55,0,0,1,1.25,1.52,1.6,1.6,0,0,1-.51,1.21,3,3,0,0,1-2.1.57,8.48,8.48,0,0,1-1.21-.07Zm.78,2.49H3c.83,0,1.32-.44,1.32-1s-.54-1-1.34-1a4.1,4.1,0,0,0-.69.05Zm0,2.9a3.78,3.78,0,0,0,.66,0c.81,0,1.55-.3,1.55-1.18s-.71-1.17-1.56-1.17H2.25Z"/><path class="cls-1" d="M12,25.55H9.65v2.19h2.63v.66H8.87V22.33h3.27V23H9.65V24.9H12Z"/><path class="cls-1" d="M15.81,22.41a8.33,8.33,0,0,1,1.51-.13,2.49,2.49,0,0,1,1.75.5,1.49,1.49,0,0,1,.48,1.15,1.61,1.61,0,0,1-1.14,1.55v0a1.53,1.53,0,0,1,.89,1.22,9.57,9.57,0,0,0,.47,1.67H19A7.7,7.7,0,0,1,18.55,27c-.18-.84-.5-1.15-1.22-1.18H16.6V28.4h-.79Zm.79,2.76h.8c.83,0,1.37-.45,1.37-1.15s-.57-1.12-1.4-1.13a3,3,0,0,0-.77.07Z"/><path class="cls-1" d="M24,22.33V28.4h-.79V22.33Z"/><path class="cls-1" d="M29,23H27.15v-.67h4.5V23H29.79v5.4H29Z"/><path class="cls-1" d="M35.14,26.49l-.63,1.91H33.7l2.07-6.07h.94l2.07,6.07h-.84l-.64-1.91Zm2-.61-.59-1.75c-.13-.4-.22-.76-.31-1.11h0c-.09.36-.19.73-.31,1.1l-.59,1.76Z"/><circle class="cls-2" cx="19" cy="75.55" r="19"/><path d="M19,67.22l-1.41,1.41,5.58,5.59H11v2H23.17l-5.58,5.59L19,83.22l8-8Z"/><path class="cls-1" d="M5.24.23V13.32H1.62V.23Z"/><path class="cls-1" d="M8.32,3.55h3.39V5.1A4.27,4.27,0,0,1,13,4a5.27,5.27,0,0,1,2.65-.69h.18A4.22,4.22,0,0,1,19,4.5,3.67,3.67,0,0,1,20,7v6.34H16.57V8.23A2.31,2.31,0,0,0,16,6.7,2.26,2.26,0,0,0,14.23,6a2.4,2.4,0,0,0-1.85.72,2,2,0,0,0-.47.74,2.44,2.44,0,0,0-.16.88v5H8.32Z"/><path class="cls-1" d="M29.62,2.13H28.18a.82.82,0,0,0-.59.18.89.89,0,0,0-.19.63v.61h2.22V6H27.4v7.3H24V6H21.83V3.55H24V2.76a2.89,2.89,0,0,1,.62-2A3.28,3.28,0,0,1,27,0h2.58Z"/><path class="cls-1" d="M37.13,13.58a8.32,8.32,0,0,1-3.08-.49,4.59,4.59,0,0,1-1.91-1.34,4.29,4.29,0,0,1-.83-1.52,5.47,5.47,0,0,1-.25-1.63V8.36a5.65,5.65,0,0,1,.41-2.1A4.23,4.23,0,0,1,33.23,4.2a7.38,7.38,0,0,1,3.88-.91h.58a7.62,7.62,0,0,1,4,.91,4.17,4.17,0,0,1,1.72,2.06,5.86,5.86,0,0,1,.36,2.08v.28a5.68,5.68,0,0,1-.36,2.06,4.08,4.08,0,0,1-1.72,2,7.76,7.76,0,0,1-4,.9ZM37.5,11a2.54,2.54,0,0,0,2.16-.91,2.68,2.68,0,0,0,.55-1.71,2.64,2.64,0,0,0-.55-1.71A2.61,2.61,0,0,0,37.5,5.8h-.19a2.67,2.67,0,0,0-2.2.88,2.72,2.72,0,0,0-.51,1.71,2.76,2.76,0,0,0,.51,1.71,2.6,2.6,0,0,0,2.2.91Z"/><path class="cls-1" d="M46.14,13.32V3.55h3.39v1.6a3.62,3.62,0,0,1,.93-1.09,3.65,3.65,0,0,1,2.26-.72h.1a3.16,3.16,0,0,1,2.53,1,4.16,4.16,0,0,1,.8,2.74v.55c0,.23,0,.42,0,.56H52.59V8.09a3,3,0,0,0-.31-1.56A1.15,1.15,0,0,0,51.2,6,1.42,1.42,0,0,0,50,6.59a2.54,2.54,0,0,0-.42,1.54v5.19Z"/><path class="cls-1" d="M58.4,13.32V3.55h3.39V5.14A4,4,0,0,1,63,4a4.72,4.72,0,0,1,2.49-.69h.14a4.18,4.18,0,0,1,2.19.53,3.48,3.48,0,0,1,1.31,1.43,4.81,4.81,0,0,1,1.55-1.34,5.42,5.42,0,0,1,2.54-.62h.15a3.9,3.9,0,0,1,3.19,1.31,4.21,4.21,0,0,1,.88,2.74v6H74V8.23a2.37,2.37,0,0,0-.48-1.53A2,2,0,0,0,71.87,6a2.07,2.07,0,0,0-1.69.72,2.19,2.19,0,0,0-.4.74,2.58,2.58,0,0,0-.14.88v5H66.22V8.23a2.37,2.37,0,0,0-.47-1.53,2.37,2.37,0,0,0-3.36,0,2.31,2.31,0,0,0-.41.74,2.67,2.67,0,0,0-.15.88v5Z"/><path class="cls-1" d="M86.52,12.93a5.18,5.18,0,0,1-2.58.58h-.28a4.14,4.14,0,0,1-2.94-.95,2.47,2.47,0,0,1-.69-1,3.14,3.14,0,0,1-.23-1.18v-.07a2.39,2.39,0,0,1,1-2,7.05,7.05,0,0,1,3.43-1l2.68-.22a1,1,0,0,0,.57-.19.58.58,0,0,0,.17-.45.72.72,0,0,0-.3-.65,3.55,3.55,0,0,0-1.74-.3,2.72,2.72,0,0,0-1.66.39.89.89,0,0,0-.31.69H80.07v0a2.69,2.69,0,0,1,.79-2c.85-.83,2.32-1.25,4.4-1.25h.54q3.15,0,4.38,1.17a2.1,2.1,0,0,1,.61,1,4.23,4.23,0,0,1,.15,1.16V9.83a1,1,0,0,0,.16.68.85.85,0,0,0,.65.18h.37v2.63H89.34a1.58,1.58,0,0,1-1.15-.44A1.84,1.84,0,0,1,87.7,12,3.6,3.6,0,0,1,86.52,12.93ZM87,10.62a1.79,1.79,0,0,0,.45-.62,1.6,1.6,0,0,0,.15-.64V8.6a13.82,13.82,0,0,1-2.15.46,6.51,6.51,0,0,0-1.71.44.78.78,0,0,0-.47.75v0a.91.91,0,0,0,.39.78,2.08,2.08,0,0,0,1.24.29A2.8,2.8,0,0,0,87,10.62Z"/><path class="cls-1" d="M98.8,13.54c-2.09,0-3.56-.41-4.41-1.25a2.49,2.49,0,0,1-.81-1.86v-.09h3.67a1,1,0,0,0,.35.64,2.5,2.5,0,0,0,1.61.4h0a2.9,2.9,0,0,0,1.51-.3.7.7,0,0,0,.37-.63,1,1,0,0,0-.06-.36.56.56,0,0,0-.25-.26,3.76,3.76,0,0,0-1.55-.31l-1.34-.11a6.28,6.28,0,0,1-3.32-.93,2.28,2.28,0,0,1-1-2V6.38a2.59,2.59,0,0,1,1-2.16,7,7,0,0,1,4.07-.9h.47a7.38,7.38,0,0,1,4.43,1,2,2,0,0,1,.69.89,3.22,3.22,0,0,1,.18,1.08v.06h-3.59s0-.1-.08-.23a.9.9,0,0,0-.29-.39A2.62,2.62,0,0,0,99,5.42h0a3.44,3.44,0,0,0-1.48.21.68.68,0,0,0-.38.6.73.73,0,0,0,.35.63,2.61,2.61,0,0,0,1.41.28l1.33.05a7,7,0,0,1,3.57.88,2,2,0,0,1,.71.86,3,3,0,0,1,.21,1.15v.12a4,4,0,0,1-.2,1.28,2.36,2.36,0,0,1-.73,1q-1.29,1-4.47,1Z"/><path class="cls-1" d="M110.53,0V2.46H107V0Zm0,3.55v9.77h-3.43V3.55Z"/></g></g></svg>