<svg xmlns="http://www.w3.org/2000/svg" viewBox="0 0 113.13 97.24"><defs><style>.cls-1{fill:lime;}.cls-2{fill:#fff;}</style></defs><title>lineup_1_2</title><g id="Layer_2" data-name="Layer 2"><g id="Layer_1-2" data-name="Layer 1"><circle class="cls-1" cx="19" cy="78.24" r="19"/><path d="M19,69.91l-1.41,1.41,5.58,5.59H11v2H23.17L17.59,84.5,19,85.91l8-8Z"/><path class="cls-2" d="M1.62,13.32V.23H5.24V5.08h7.3V.23h3.63V13.32H12.54V8.06H5.24v5.26Z"/><path class="cls-2" d="M22.71,0V2.46h-3.5V0Zm0,3.55v9.77H19.24V3.55Z"/><path class="cls-2" d="M32.84,13.51a6,6,0,0,1-2.73-.6,4.46,4.46,0,0,1-1.28-.9,6.39,6.39,0,0,0-.28,1.31h-3V0H29V4.77a4.36,4.36,0,0,1,1.25-.88,6.39,6.39,0,0,1,2.62-.53h.23A4.78,4.78,0,0,1,37,4.91a4.49,4.49,0,0,1,.81,1.53,5.92,5.92,0,0,1,.26,1.79v.3a5.78,5.78,0,0,1-.27,1.73A4.66,4.66,0,0,1,37,11.82a4.61,4.61,0,0,1-3.88,1.69Zm1.67-5.12A2.59,2.59,0,0,0,34,6.75a2.54,2.54,0,0,0-2.13-.84H31.7a2.7,2.7,0,0,0-2.13.81A2.44,2.44,0,0,0,29,8.39v0a2.35,2.35,0,0,0,.58,1.64,2.65,2.65,0,0,0,2.13.84h.17A2.5,2.5,0,0,0,34,10.06a2.53,2.53,0,0,0,.51-1.62Z"/><path class="cls-2" d="M52,13.32H48.64V11.77a4,4,0,0,1-.51.54,5.15,5.15,0,0,1-.78.55,5.25,5.25,0,0,1-2.64.68h-.15a4.09,4.09,0,0,1-3.1-1.17,3.51,3.51,0,0,1-.75-1.16,3.63,3.63,0,0,1-.25-1.32V3.55h3.43V8.64a2.2,2.2,0,0,0,.52,1.53,2.23,2.23,0,0,0,1.76.66A2.34,2.34,0,0,0,48,10.11a2.23,2.23,0,0,0,.62-1.6v-5H52Z"/><path class="cls-2" d="M55,13.32V3.55h3.39v1.6a3.52,3.52,0,0,1,.94-1.09,3.61,3.61,0,0,1,2.25-.72h.1a3.19,3.19,0,0,1,2.54,1A4.22,4.22,0,0,1,65,7.12v.55c0,.23,0,.42,0,.56H61.4V8.09a3.16,3.16,0,0,0-.3-1.56A1.17,1.17,0,0,0,60,6a1.42,1.42,0,0,0-1.21.57,2.54,2.54,0,0,0-.42,1.54v5.19Z"/><path class="cls-2" d="M73.31,12.93a5.18,5.18,0,0,1-2.58.58h-.28a4.14,4.14,0,0,1-2.94-.95,2.47,2.47,0,0,1-.69-1,3.14,3.14,0,0,1-.23-1.18v-.07a2.39,2.39,0,0,1,1-2,7.05,7.05,0,0,1,3.43-1l2.68-.22a1,1,0,0,0,.57-.19.58.58,0,0,0,.17-.45.72.72,0,0,0-.3-.65,3.55,3.55,0,0,0-1.74-.3,2.72,2.72,0,0,0-1.66.39.89.89,0,0,0-.31.69H66.86v0a2.69,2.69,0,0,1,.79-2c.86-.83,2.32-1.25,4.4-1.25h.54q3.15,0,4.38,1.17a2.1,2.1,0,0,1,.61,1,4.23,4.23,0,0,1,.15,1.16V9.83a1,1,0,0,0,.16.68.85.85,0,0,0,.65.18h.37v2.63H76.13A1.58,1.58,0,0,1,75,12.88a1.84,1.84,0,0,1-.49-.92A3.6,3.6,0,0,1,73.31,12.93Zm.48-2.31a1.79,1.79,0,0,0,.45-.62,1.6,1.6,0,0,0,.15-.64V8.6a13.82,13.82,0,0,1-2.15.46,6.39,6.39,0,0,0-1.71.44.78.78,0,0,0-.47.75v0a.91.91,0,0,0,.39.78,2.08,2.08,0,0,0,1.24.29A2.8,2.8,0,0,0,73.79,10.62Z"/><path class="cls-2" d="M80.89,3.55h3.4V5.1A4.22,4.22,0,0,1,85.59,4a5.28,5.28,0,0,1,2.66-.69h.17A4.2,4.2,0,0,1,91.57,4.5a3.51,3.51,0,0,1,.75,1.16A3.63,3.63,0,0,1,92.57,7v6.34H89.14V8.23a2.31,2.31,0,0,0-.52-1.53A2.28,2.28,0,0,0,86.8,6,2.38,2.38,0,0,0,85,6.74a2.15,2.15,0,0,0-.48.74,2.68,2.68,0,0,0-.16.88v5H80.89Z"/><path class="cls-2" d="M.76,25a8.55,8.55,0,0,1,1.6-.14,2.78,2.78,0,0,1,1.86.5,1.41,1.41,0,0,1,.56,1.19A1.61,1.61,0,0,1,3.63,28v0A1.74,1.74,0,0,1,5,29.75a1.82,1.82,0,0,1-.57,1.36,3.41,3.41,0,0,1-2.34.63,10.23,10.23,0,0,1-1.36-.08Zm.88,2.78h.79c.92,0,1.46-.49,1.46-1.14s-.6-1.1-1.48-1.1a3.73,3.73,0,0,0-.77.06Zm0,3.24a4.65,4.65,0,0,0,.73,0c.9,0,1.74-.33,1.74-1.32s-.8-1.3-1.75-1.3H1.64Z"/><path class="cls-2" d="M9.51,29.55l-.7,2.13H7.9l2.3-6.77h1.06l2.31,6.77h-.94l-.72-2.13Zm2.22-.68-.66-1.95a12.56,12.56,0,0,1-.36-1.23h0c-.1.4-.21.81-.34,1.22l-.66,2Z"/><path class="cls-2" d="M16.77,31.68V24.91h.95l2.17,3.43a18.52,18.52,0,0,1,1.22,2.2h0c-.08-.91-.1-1.73-.1-2.78V24.91h.82v6.77H21l-2.15-3.43A21.64,21.64,0,0,1,17.55,26h0c.05.85.07,1.67.07,2.79v2.89Z"/><path class="cls-2" d="M25.59,25a12.46,12.46,0,0,1,1.85-.14,3.87,3.87,0,0,1,2.74.85,3.08,3.08,0,0,1,1,2.43,3.55,3.55,0,0,1-1,2.63,4.16,4.16,0,0,1-3,1,14,14,0,0,1-1.58-.08Zm.87,6a5.49,5.49,0,0,0,.88.05,2.6,2.6,0,0,0,2.88-2.87,2.41,2.41,0,0,0-2.74-2.61,4.94,4.94,0,0,0-1,.09Z"/><path class="cls-2" d="M43.06,31.68,42.43,31a2.8,2.8,0,0,1-2,.77,1.91,1.91,0,0,1-2.08-1.9,2.21,2.21,0,0,1,1.32-2v0a2.37,2.37,0,0,1-.56-1.42,1.65,1.65,0,0,1,1.72-1.67,1.42,1.42,0,0,1,1.5,1.44c0,.71-.42,1.27-1.49,1.81v0c.57.66,1.21,1.4,1.65,1.88a4.94,4.94,0,0,0,.65-2H44a5.21,5.21,0,0,1-1,2.5l1.11,1.19ZM42,30.52c-.4-.44-1.15-1.27-1.9-2.13a1.64,1.64,0,0,0-.88,1.37,1.33,1.33,0,0,0,1.39,1.37A1.88,1.88,0,0,0,42,30.52Zm-2.05-4.13a1.94,1.94,0,0,0,.51,1.22c.68-.4,1.12-.76,1.12-1.33a.79.79,0,0,0-.78-.87A.88.88,0,0,0,39.94,26.39Z"/><path class="cls-2" d="M52.32,25.66H50.26v-.75h5v.75H53.2v6h-.88Z"/><path class="cls-2" d="M58.57,29.55l-.7,2.13H57l2.3-6.77h1l2.31,6.77H61.7L61,29.55Zm2.22-.68-.66-1.95c-.15-.44-.25-.84-.35-1.23h0c-.1.4-.21.81-.34,1.22l-.67,2Z"/><path class="cls-2" d="M65.83,24.91h.88v6H69.6v.73H65.83Z"/><path class="cls-2" d="M72.78,24.91h.88v3.27h0c.18-.26.36-.5.53-.72l2.07-2.55h1.08l-2.45,2.88,2.64,3.89h-1L74.3,28.36l-.64.74v2.58h-.88Z"/><path class="cls-2" d="M80.31,30.62a3.15,3.15,0,0,0,1.57.44c.89,0,1.42-.47,1.42-1.16s-.37-1-1.28-1.34c-1.1-.39-1.79-1-1.79-1.92a2,2,0,0,1,2.19-1.84,3,3,0,0,1,1.5.34l-.24.71a2.73,2.73,0,0,0-1.29-.32c-.92,0-1.27.55-1.27,1,0,.63.41.94,1.34,1.31,1.15.44,1.73,1,1.73,2s-.77,2-2.37,2a3.52,3.52,0,0,1-1.73-.43Z"/><path class="cls-2" d="M88.47,24.91v2.84h3.27V24.91h.88v6.77h-.88V28.51H88.47v3.17h-.88V24.91Z"/><path class="cls-2" d="M102.13,28.23c0,2.33-1.41,3.56-3.14,3.56s-3-1.38-3-3.43,1.34-3.56,3.14-3.56S102.13,26.22,102.13,28.23Zm-5.25.11c0,1.44.79,2.74,2.16,2.74s2.17-1.28,2.17-2.81c0-1.35-.7-2.75-2.16-2.75S96.88,26.85,96.88,28.34Z"/><path class="cls-2" d="M106.58,31.68l-1.71-6.77h.92l.8,3.43c.2.84.38,1.69.51,2.34h0c.11-.68.32-1.48.55-2.35l.9-3.42h.92l.82,3.44c.19.8.37,1.61.47,2.32h0c.14-.75.33-1.5.54-2.34l.9-3.42h.89l-1.92,6.77h-.91l-.86-3.52A20.92,20.92,0,0,1,109,26h0a21.79,21.79,0,0,1-.52,2.21l-1,3.52Z"/></g></g></svg>