<svg xmlns="http://www.w3.org/2000/svg" viewBox="0 0 85.57 96.93"><defs><style>.cls-1{fill:lime;}.cls-2{fill:#fff;}</style></defs><title>lineup_1_1</title><g id="Layer_2" data-name="Layer 2"><g id="Layer_1-2" data-name="Layer 1"><circle class="cls-1" cx="19" cy="77.93" r="19"/><path d="M19,69.6,17.59,71l5.58,5.59H11v2H23.17l-5.58,5.59L19,85.6l8-8Z"/><path class="cls-2" d="M5.24,9.13v4.19H1.62V.23h8.86a6.25,6.25,0,0,1,4.26,1.21A4.07,4.07,0,0,1,15.9,4.57v.2a4,4,0,0,1-1.18,3.11,6.1,6.1,0,0,1-4.24,1.25Zm0-2.92h5q1.92,0,1.92-1.5V4.64a1.35,1.35,0,0,0-.48-1.1,2.23,2.23,0,0,0-1.44-.39h-5Z"/><path class="cls-2" d="M18.1,13.32V3.55h3.39v1.6a3.52,3.52,0,0,1,.94-1.09,3.61,3.61,0,0,1,2.25-.72h.1a3.19,3.19,0,0,1,2.54,1,4.22,4.22,0,0,1,.79,2.74v.55c0,.23,0,.42,0,.56H24.55V8.09a3.16,3.16,0,0,0-.3-1.56A1.17,1.17,0,0,0,23.16,6,1.42,1.42,0,0,0,22,6.59a2.54,2.54,0,0,0-.42,1.54v5.19Z"/><path class="cls-2" d="M35.9,13.58a8.32,8.32,0,0,1-3.08-.49,4.69,4.69,0,0,1-1.92-1.34,4.42,4.42,0,0,1-.82-1.52,5.47,5.47,0,0,1-.25-1.63V8.36a5.65,5.65,0,0,1,.41-2.1A4.26,4.26,0,0,1,32,4.2a7.44,7.44,0,0,1,3.89-.91h.58a7.64,7.64,0,0,1,4,.91,4.17,4.17,0,0,1,1.72,2.06,5.86,5.86,0,0,1,.35,2.08v.28a5.68,5.68,0,0,1-.35,2.06,4.08,4.08,0,0,1-1.72,2,7.77,7.77,0,0,1-4,.9ZM36.27,11a2.55,2.55,0,0,0,2.16-.91A2.68,2.68,0,0,0,39,8.39a2.64,2.64,0,0,0-.55-1.71,2.62,2.62,0,0,0-2.16-.88h-.19a2.67,2.67,0,0,0-2.2.88,2.72,2.72,0,0,0-.51,1.71,2.76,2.76,0,0,0,.51,1.71,2.6,2.6,0,0,0,2.2.91Z"/><path class="cls-2" d="M56.88,0V13.32H53.47V12.05a3.56,3.56,0,0,1-1.12.86,5.5,5.5,0,0,1-2.62.6H49.5A4.89,4.89,0,0,1,45.63,12a4.36,4.36,0,0,1-.9-1.55,5.63,5.63,0,0,1-.3-1.84v-.3a5.51,5.51,0,0,1,.3-1.82,4.81,4.81,0,0,1,.88-1.56,4.87,4.87,0,0,1,3.85-1.53h.21a6.58,6.58,0,0,1,2.57.47,4.73,4.73,0,0,1,1.21.76V0ZM50.61,5.91a2.55,2.55,0,0,0-2.12.84A2.85,2.85,0,0,0,48,8.39v0a2.82,2.82,0,0,0,.13.84,2.59,2.59,0,0,0,.39.78,2.53,2.53,0,0,0,2.12.86h.19a2.64,2.64,0,0,0,2.11-.84,2.35,2.35,0,0,0,.58-1.64v0a2.44,2.44,0,0,0-.58-1.67,2.68,2.68,0,0,0-2.11-.81Z"/><path class="cls-2" d="M71.34,13.32H68V11.77a4,4,0,0,1-.51.54,4.31,4.31,0,0,1-.78.55,5.18,5.18,0,0,1-2.63.68h-.16a4.09,4.09,0,0,1-3.1-1.17A3.51,3.51,0,0,1,60,11.21a3.63,3.63,0,0,1-.25-1.32V3.55H63.2V8.64a2.16,2.16,0,0,0,.53,1.53,2.21,2.21,0,0,0,1.76.66,2.36,2.36,0,0,0,1.81-.72,2.22,2.22,0,0,0,.61-1.6v-5h3.43Z"/><path class="cls-2" d="M77.69,13.32H74.26V0h3.43V7.46l3.49-3.91h3.95L81.05,7.93l4.52,5.39H81.49l-3.8-4.53Z"/><path class="cls-2" d="M1.4,24.69a9.18,9.18,0,0,1,1.68-.14,2.8,2.8,0,0,1,2,.55,1.7,1.7,0,0,1,.53,1.29,1.77,1.77,0,0,1-1.28,1.72v0a1.7,1.7,0,0,1,1,1.37,10.94,10.94,0,0,0,.52,1.86h-.9a7.9,7.9,0,0,1-.46-1.62c-.2-.93-.56-1.28-1.35-1.31H2.27v2.93H1.4Zm.87,3.08h.9c.93,0,1.52-.51,1.52-1.28s-.63-1.26-1.55-1.27a3.75,3.75,0,0,0-.87.08Z"/><path class="cls-2" d="M12.52,28.19H9.89v2.44h2.93v.74H9V24.6h3.66v.73H9.89v2.14h2.63Z"/><path class="cls-2" d="M16,30.3a3.12,3.12,0,0,0,1.57.45c.89,0,1.41-.48,1.41-1.16s-.36-1-1.27-1.34c-1.1-.4-1.79-1-1.79-1.92a2,2,0,0,1,2.19-1.84,3.11,3.11,0,0,1,1.5.33l-.24.71a2.73,2.73,0,0,0-1.29-.32c-.92,0-1.27.55-1.27,1,0,.63.41.94,1.34,1.3,1.15.44,1.73,1,1.73,2s-.77,1.95-2.37,1.95A3.52,3.52,0,0,1,15.82,31Z"/><path class="cls-2" d="M29,28.4c-.05-.95-.11-2.08-.1-2.93h0c-.24.8-.52,1.64-.86,2.57l-1.19,3.29h-.66l-1.1-3.23c-.32-1-.59-1.82-.78-2.63h0c0,.85-.07,2-.13,3L24,31.37h-.84l.47-6.77h1.12l1.15,3.27c.28.84.52,1.58.69,2.28h0c.17-.68.41-1.42.71-2.28l1.2-3.27h1.12l.42,6.77H29.2Z"/><path class="cls-2" d="M34.48,24.6v6.77h-.87V24.6Z"/></g></g></svg>